<svg width="584" height="584" viewBox="0 0 584 584" fill="none" xmlns="http://www.w3.org/2000/svg"><path d="M571.898 539.241a3.653 3.653 0 00-.02-.146l-54.023-374.942a8.555 8.555 0 00-8.468-7.334h-40.329v-44.373C469.058 50.443 418.589 0 356.553 0c-24.151 0-46.975 7.455-66.301 21.597C271.661 8.024 248.772 0 224.038 0c-23.312 0-45.681 7.068-64.688 20.442-9.046 6.365.802 20.363 9.845 13.993C185.305 23.1 204.27 17.11 224.039 17.11c52.602 0 95.395 42.768 95.395 95.337v87.981c-.668 6.565-4.299 10.018-10.895 10.359-5.442-.256-9.867-5.142-9.867-10.893v-87.447c0-40.677-33.99-74.594-74.634-74.594-41.151 0-74.632 33.462-74.632 74.594v87.447c0 5.751-4.427 10.637-9.867 10.893-6.596-.341-10.227-3.793-10.896-10.359v-87.981c0-16.709 4.387-33.146 12.684-47.533 5.526-9.581-9.296-18.13-14.821-8.548-9.795 16.983-14.972 36.376-14.972 56.081v44.372H74.631a8.554 8.554 0 00-8.467 7.335L12.14 539.094C8.96 562.414 28.212 584 51.594 584h480.832c23.59 0 42.436-21.348 39.472-44.759zM451.949 112.446v44.372h-20.763v-44.372c0-41.132-33.481-74.594-74.633-74.594a74.85 74.85 0 00-39.551 11.334 113.364 113.364 0 00-13.337-16.1c15.651-10.474 33.779-15.977 52.888-15.977 52.601 0 95.396 42.768 95.396 95.337zm-80.771 44.372h-34.634v-44.372c0-17.327-3.944-33.75-10.979-48.423a57.686 57.686 0 0130.988-9.062c31.719 0 57.524 25.788 57.524 57.485v44.372h-42.899zm-89.616-44.372v44.372h-20.405v-44.372a95.5 95.5 0 017.269-36.526c8.203 9.938 13.136 22.666 13.136 36.526zm-57.523-57.485c11.392 0 22.01 3.34 30.955 9.071a112.598 112.598 0 00-10.947 48.415v44.372h-77.532v-44.373c.002-31.698 25.807-57.485 57.524-57.485zm325.405 504.246a22.696 22.696 0 01-17.02 7.684H426.902c5.395-7.779 8.261-18.332 6.756-27.797l-10.64-73.841c-.674-4.677-5.029-7.921-9.686-7.248a8.556 8.556 0 00-7.248 9.688l10.628 73.759c2.016 16.312-11.75 25.439-26.229 25.439H51.594c-13.297 0-24.143-12.195-22.507-25.439l52.956-367.525h29.492v26.5c0 14.845 12.617 27.481 27.466 27.481 15.193 0 27.516-12.939 27.516-28.015v-25.966h115.045v25.966c0 15.002 11.497 27.293 26.173 27.983 15.32.714 28.809-12.037 28.809-27.449v-26.5h27.213l35.854 248.848a8.555 8.555 0 0016.935-2.44l-35.503-246.407h120.934l52.955 367.529a22.658 22.658 0 01-5.488 17.75z" fill="#FF7844" opacity=".1"/></svg>