<svg xmlns="http://www.w3.org/2000/svg" width="65" height="19" viewBox="0 0 65 19" fill="none"><path d="M64.34 11.453c.88-.44.88-1.868 0-2.307C57.529 5.41 50.607 2.004 43.136.026c-1.1-.22-2.198.989-1.539 1.978C43.135 4.2 45.003 6.069 47.2 7.718 31.817 7.278 15.885 5.19.722 8.816c-1.099.22-.879 2.088.22 1.978 15.712-1.978 31.315-.44 47.027-.22-1.648 1.868-3.296 3.736-4.944 5.494-.77.77-.33 2.417.989 2.307 7.251-.879 14.064-3.296 20.327-6.922zm-13.075-1.208c.99-.66.77-2.527-.769-2.527h-.22c-1.318-1.319-2.637-2.528-3.955-3.956 5.054 1.758 9.779 3.956 14.504 6.482-4.286 2.198-8.68 3.846-13.405 4.725 1.099-1.208 2.197-2.527 3.406-3.736.44-.22.55-.659.44-.988z" fill="currentColor"></path></svg>