<svg xmlns="http://www.w3.org/2000/svg" width="58" height="58" viewBox="0 0 58 58" fill="none"><path d="M30.0606 26.431C26.3775 22.0732 21.4237 24.375 14.4681 23.3641C4.22297 21.9212 0.323249 26.8886 2.19718 31.2981C4.07112 35.7075 10.607 35.5102 13.6416 39.4995C16.8391 43.3394 15.2415 49.6631 19.1153 52.4703C22.9891 55.2775 28.6966 52.5407 29.5508 42.2487C30.1434 35.3055 33.4763 30.9651 30.0606 26.431Z" stroke="none" fill="currentColor"></path><path d="M24.7441 13.0078C23.3322 18.1597 19.4903 21.5937 16.1598 20.6877C12.8292 19.7817 11.2934 14.8559 12.7053 9.70395C14.1172 4.55205 17.9591 1.11805 21.2896 2.02404C24.6202 2.93002 26.1929 7.93216 24.7441 13.0078Z" stroke="none" fill="currentColor"></path><path d="M41.9711 34.4779C36.6277 34.71 32.4318 37.7037 32.5858 41.1338C32.7398 44.564 37.2032 47.1801 42.4611 46.9658C47.7189 46.7515 52.0003 43.7401 51.8463 40.3099C51.6923 36.8797 47.2289 34.2636 41.9711 34.4779Z" stroke="none" fill="currentColor"></path><path d="M40.9172 15.8646C37.17 20.029 31.9322 21.5978 29.2276 19.166C26.523 16.7342 27.303 11.394 31.0225 7.17235C34.7421 2.95073 39.9983 1.42005 42.6931 3.88015C45.3879 6.34024 44.6276 11.6239 40.9172 15.8646Z" stroke="none" fill="currentColor"></path><path d="M42.7335 18.1617C37.8031 20.852 35.1937 25.6186 36.9227 28.8046C38.6517 31.9905 44.0718 32.4034 49.1067 29.686C54.1417 26.9687 56.6656 22.2198 54.9176 19.0431C53.1695 15.8664 47.6923 15.4812 42.7335 18.1617Z" stroke="none" fill="currentColor"></path></svg>