<svg xmlns="http://www.w3.org/2000/svg" width="39" height="39" viewBox="0 0 39 39" fill="none"><path stroke="none" fill-rule="evenodd" clip-rule="evenodd" d="M0.812012 9.51791C0.812012 7.4188 2.48241 5.68756 4.57905 5.68756H31.1699C33.2667 5.68756 34.937 7.4188 34.937 9.51791V17.8751C34.937 18.3237 34.5732 18.6876 34.1245 18.6876C33.6758 18.6876 33.312 18.3237 33.312 17.8751V9.51791C33.312 8.28361 32.3369 7.31256 31.1699 7.31256H4.57905C3.41219 7.31256 2.43701 8.28361 2.43701 9.51791V24.6073C2.43701 25.8415 3.41219 26.8126 4.57905 26.8126H16.2495C16.6982 26.8126 17.062 27.1764 17.062 27.6251C17.062 28.0737 16.6982 28.4376 16.2495 28.4376H4.57905C2.48241 28.4376 0.812012 26.7063 0.812012 24.6073V9.51791Z" fill="currentColor"></path><path stroke="none" fill-rule="evenodd" clip-rule="evenodd" d="M0.812012 11.3751C0.812012 10.9263 1.17578 10.5626 1.62451 10.5626H34.1245C34.5732 10.5626 34.937 10.9263 34.937 11.3751C34.937 11.8238 34.5732 12.1876 34.1245 12.1876H1.62451C1.17578 12.1876 0.812012 11.8238 0.812012 11.3751Z" fill="currentColor"></path><path stroke="none" fill-rule="evenodd" clip-rule="evenodd" d="M4.06152 19.5001C4.06152 19.0515 4.4253 18.6876 4.87402 18.6876H8.12402C8.57275 18.6876 8.93652 19.0515 8.93652 19.5001C8.93652 19.9488 8.57275 20.3126 8.12402 20.3126H4.87402C4.4253 20.3126 4.06152 19.9488 4.06152 19.5001Z" fill="currentColor"></path><path stroke="none" fill-rule="evenodd" clip-rule="evenodd" d="M4.06152 23.5626C4.06152 23.1139 4.4253 22.7501 4.87402 22.7501H11.374C11.8228 22.7501 12.1865 23.1139 12.1865 23.5626C12.1865 24.0112 11.8228 24.375 11.374 24.375H4.87402C4.4253 24.375 4.06152 24.0112 4.06152 23.5626Z" fill="currentColor"></path><path stroke="none" fill-rule="evenodd" clip-rule="evenodd" d="M29.2495 21.9376C25.2109 21.9376 21.937 25.2114 21.937 29.25C21.937 33.2887 25.2109 36.5625 29.2495 36.5625C33.2881 36.5625 36.562 33.2887 36.562 29.25C36.562 25.2114 33.2881 21.9376 29.2495 21.9376ZM20.312 29.25C20.312 24.314 24.3134 20.3126 29.2495 20.3126C34.1856 20.3126 38.187 24.314 38.187 29.25C38.187 34.1861 34.1856 38.1875 29.2495 38.1875C24.3134 38.1875 20.312 34.1861 20.312 29.25Z" fill="currentColor"></path><path stroke="none" fill-rule="evenodd" clip-rule="evenodd" d="M31.9245 27.863C32.2419 27.5458 32.7564 27.5458 33.0737 27.863C33.3909 28.1803 33.3909 28.6948 33.0737 29.0122L29.8237 32.2622C29.5064 32.5794 28.9919 32.5794 28.6745 32.2622L26.237 29.8247C25.9198 29.5073 25.9198 28.9928 26.237 28.6755C26.5544 28.3583 27.0689 28.3583 27.3862 28.6755L29.2491 30.5385L31.9245 27.863Z" fill="currentColor"></path></svg>