<svg xmlns="http://www.w3.org/2000/svg" width="45" height="43" viewBox="0 0 45 43" fill="none"><path d="M44.0158 7.95474L22.6058 0.0548747C22.4073 -0.0182916 22.1892 -0.0182916 21.9908 0.0548747L0.580888 7.95474L0.580714 7.95543C0.510596 7.98139 0.443178 8.01571 0.380464 8.05935C0.142064 8.22554 0 8.49774 0 8.78822V34.2053C0 34.5773 0.23178 34.91 0.580801 35.0388L21.9907 42.9387C22.0905 42.9755 22.1946 42.9935 22.2982 42.9935C22.4028 42.9935 22.5069 42.9745 22.6055 42.9381L22.6058 42.9387L44.0158 35.0388C44.3648 34.91 44.5966 34.5774 44.5966 34.2053V8.78822C44.5966 8.41612 44.3648 8.08356 44.0158 7.95474ZM21.4099 40.8305L1.77672 33.5862V10.063L5.77438 11.5381V22.3021C5.77438 22.6741 6.00616 23.0068 6.35519 23.1356L15.9496 26.6759C16.0495 26.7127 16.1535 26.7308 16.2571 26.7308C16.4364 26.7308 16.6141 26.6765 16.7652 26.5712C17.0035 26.4051 17.1456 26.1329 17.1456 25.8424V15.7339L21.4097 17.3073V40.8305H21.4099ZM15.3689 15.0783V24.5675L7.55119 21.6828V12.1936L15.3689 15.0783ZM9.22914 10.9118L16.2573 8.31848L23.2854 10.9118L16.2573 13.5051L9.22914 10.9118ZM22.2983 15.7412L18.8141 14.4556L26.1594 11.7452C26.5084 11.6164 26.7402 11.2838 26.7402 10.9117C26.7402 10.5396 26.5084 10.207 26.1594 10.0782L16.5648 6.53801C16.3663 6.46485 16.1483 6.46485 15.9497 6.53801L6.65316 9.96846L3.45475 8.78822L22.2983 1.83534L41.1418 8.78831L22.2983 15.7412ZM42.8198 33.5862L23.1867 40.8304V17.3073L42.8198 10.063V33.5862Z" stroke="none" fill="currentColor"></path></svg>