<svg xmlns="http://www.w3.org/2000/svg" width="43" height="43" viewBox="0 0 43 43" fill="none"><path d="M38.5485 4.83038H4.45154C1.99417 4.83297 0.00258983 6.82455 0 9.28192V33.6233C0.00258983 36.0807 1.99417 38.0723 4.45154 38.0749H38.5485C41.0058 38.0723 42.9974 36.0807 43 33.6233V9.28192C42.9974 6.82455 41.0058 4.83297 38.5485 4.83038ZM13.0838 33.0225C13.0594 33.0081 13.0353 32.9929 13.0117 32.9777C12.9595 32.9252 12.8992 32.8819 12.833 32.8493C12.4408 32.536 12.1737 32.0927 12.0793 31.5999L11.4988 28.5569L14.5419 29.137C15.3654 29.2946 16.017 29.9254 16.2008 30.7431C16.3847 31.5611 16.0662 32.4102 15.3895 32.9048C14.7124 33.3995 13.8067 33.4457 13.0834 33.0225H13.0838ZM1.32599 25.5727H4.40308C4.9055 26.1435 5.58367 26.5305 6.33102 26.673L9.37591 27.2538L6.33102 27.8347C5.84339 27.9276 5.3824 28.1251 4.97913 28.4141H1.32599V25.5727ZM15.8915 24.479C15.869 24.5053 15.8486 24.5334 15.8305 24.5634C15.5168 24.9837 15.0573 25.2715 14.5422 25.3707L11.4992 25.9508L12.0797 22.9077C12.2388 22.0675 12.8907 21.4071 13.7287 21.2366C14.5667 21.0664 15.4246 21.4197 15.8993 22.1312C16.374 22.8426 16.371 23.7705 15.8919 24.479H15.8915ZM10.777 22.6595L10.5606 23.7927L10.3445 22.6595C10.1843 21.8215 9.71777 21.073 9.03553 20.5602V6.15637H11.8769V20.7315C11.3064 21.234 10.9191 21.9125 10.7766 22.6595H10.777ZM8.03771 21.4852C8.56197 21.7923 8.92787 22.311 9.04182 22.9077L9.62232 25.9508L6.57927 25.3703C6.08424 25.2756 5.63953 25.0059 5.3269 24.6107C5.29583 24.5497 5.25587 24.4935 5.20777 24.4442C4.67797 23.6262 4.77934 22.5511 5.45306 21.8467C6.12679 21.1422 7.19602 20.9924 8.03734 21.4852H8.03771ZM6.57927 29.137L9.62232 28.5565L9.04182 31.5996C8.84315 32.6414 7.90008 33.3732 6.84158 33.3066C5.78271 33.24 4.9388 32.3961 4.8722 31.3373C4.80561 30.2784 5.53705 29.3357 6.57927 29.137ZM10.3445 31.8478L10.5606 30.7146L10.7766 31.8478C10.9194 32.5952 11.3064 33.2737 11.8769 33.7769V36.7489H9.03553V33.9463C9.71777 33.4343 10.1847 32.6862 10.3445 31.8482V31.8478ZM16.142 28.4141C15.7387 28.1251 15.2778 27.9276 14.7901 27.8347L11.7452 27.2538L14.7901 26.673C15.5375 26.5305 16.2156 26.1435 16.7181 25.5727H41.674V28.4141H16.142ZM41.674 9.28192V24.2467H17.4454C17.7903 23.048 17.4565 21.7567 16.5749 20.8751C15.6929 19.9931 14.4017 19.6597 13.2029 20.0042V6.15637H38.5485C40.2737 6.15822 41.6722 7.55673 41.674 9.28192ZM4.45154 6.15637H7.70954V19.952C6.52969 19.6919 5.29953 20.0719 4.47226 20.9528C3.64463 21.8337 3.34199 23.085 3.6757 24.2467H1.32599V9.28192C1.32784 7.55673 2.72635 6.15822 4.45154 6.15637ZM1.32599 33.6233V29.7401H3.87179C3.31276 30.9229 3.47481 32.3207 4.29023 33.344C5.10566 34.3674 6.43202 34.8376 7.70954 34.5568V36.7489H4.45154C2.72635 36.747 1.32784 35.3485 1.32599 33.6233ZM38.5485 36.7489H13.2029V34.5031C14.4982 34.875 15.8908 34.4539 16.7632 33.4272C17.6356 32.4006 17.8258 30.958 17.2494 29.7401H41.674V33.6233C41.6722 35.3485 40.2737 36.747 38.5485 36.7489Z" fill="currentColor" stroke="none"></path></svg>