<svg xmlns="http://www.w3.org/2000/svg" width="26" height="26" viewBox="0 0 26 26" fill="none"><g clip-path="url(#clip0)" fill="currentColor"><path d="M19.42 4.682a.778.778 0 100-1.556.778.778 0 000 1.556z"></path><path d="M25.795 2.454l-.147-.642-1.422-.036-.037-1.423-.642-.147c-1.556-.355-3.753-.245-5.876.296-1.58.403-3.756 1.21-5.74 2.806-1.947.05-4.835 1.358-6.378 2.901a1.968 1.968 0 00-.587 1.535c.041.767.488 1.632 1.33 2.57.165.184.328.352.48.5-.513 1.59-.694 3.101-.64 4.409-2.292-.167-4.825.663-5.721 1.68-.394.447-.514.978-.33 1.455.349.9 1.306 1.073 2.233 1.239.95.17 2.027.364 2.875 1.211.848.848 1.04 1.925 1.212 2.876.166.926.338 1.884 1.238 2.232.147.057.3.085.453.085.344 0 .693-.142 1.002-.414 1.017-.896 1.847-3.43 1.68-5.721.147.006.295.009.446.009 1.201 0 2.552-.194 3.964-.649.154.158.33.33.525.505.938.841 1.802 1.288 2.57 1.33l.118.003c.541 0 1.03-.203 1.416-.59 1.559-1.559 2.877-4.489 2.902-6.435 1.58-1.976 2.38-4.137 2.78-5.71.541-2.121.652-4.318.296-5.875zM6.66 7.654a.282.282 0 01.092-.246c.712-.711 1.826-1.386 2.933-1.84A16.506 16.506 0 007.46 9.071c-.431-.502-.78-1.038-.8-1.417zm11.96 11.621a.283.283 0 01-.246.092c-.383-.02-.933-.382-1.444-.825a16.52 16.52 0 003.557-2.268c-.453 1.13-1.142 2.275-1.867 3.001zm5.237-11.364c-.157.615-.382 1.331-.702 2.088a8.206 8.206 0 01-4.805-2.347 8.133 8.133 0 01-1.998-3.244l-1.612.528A9.813 9.813 0 0017.15 8.85a9.9 9.9 0 005.203 2.739 11.711 11.711 0 01-1.791 2.322c-1.645 1.645-3.58 2.889-5.594 3.597-1.743.612-3.54.815-5.057.57l-1.266-.203.309 1.245c.233.938.191 2.152-.114 3.331-.197.762-.445 1.282-.638 1.583-.048-.2-.092-.447-.129-.651-.193-1.076-.457-2.55-1.681-3.774-1.224-1.224-2.698-1.489-3.775-1.682a12.04 12.04 0 01-.65-.13c.3-.192.82-.44 1.582-.636 1.179-.306 2.393-.348 3.331-.115l1.245.31-.203-1.267c-.245-1.518-.042-3.314.57-5.057.708-2.014 1.952-3.948 3.597-5.594 1.957-1.957 4.344-2.871 6.001-3.294 1.8-.459 3.373-.513 4.44-.392l.042 1.676 1.676.043c.12 1.066.067 2.639-.392 4.44z"></path></g><defs><clipPath id="clip0"><path fill="currentColor" d="M0 0h26v26H0z"></path></clipPath></defs></svg>