<svg xmlns="http://www.w3.org/2000/svg" width="26" height="26" viewBox="0 0 26 26" fill="none"><g clip-path="url(#clip0)"><path d="M23.062 5.893l-5.97-2.123c-2.564-1.118-5.634-1.118-8.193.003l-5.961 2.12a4.425 4.425 0 00-2.686 5.635L1.303 14.5a.762.762 0 001.331.199l.088-.119a10.35 10.35 0 001.476 4.17l.001.003c-.018.12-.033.24-.045.357-.147 1.545.293 2.742 1.238 3.373 1.038.692 2.289.744 3.616.15.466-.207.94-.499 1.404-.856a3.236 3.236 0 005.174-.001c.465.358.94.65 1.406.858 1.23.552 2.507.588 3.616-.151 1.034-.64 1.457-2.192 1.193-3.732l.016-.024a10.351 10.351 0 001.461-4.147l.088.119a.762.762 0 001.331-.199l1.05-2.973a4.425 4.425 0 00-2.685-5.634zM2.261 12.639l-.572-1.619a2.899 2.899 0 011.76-3.692L7.15 6.012l-4.89 6.627zm1.903.65c0-.229.009-.459.026-.685v-.015l5.256-7.121c1.172 1.555 1.765 3.619 1.632 5.653a8.534 8.534 0 00-2.671 1.118c.465-.473.124-1.294-.547-1.292a.762.762 0 00-.762.762c-.01.524.553.908 1.036.71-1.463.985-2.628 2.581-3.315 4.206a8.83 8.83 0 01-.655-3.336zM13 21.553c-.564 0-1.095-.298-1.455-.806.466-.482.691-.974 1.454-.97.416 0 .747.155 1.014.474.143.172.292.338.442.497-.357.506-.884.805-1.455.805zm.194-4.004c-.547 0-.983-.567-.983-.79 0-.1.349-.4.983-.4s.983.3.983.4c0 .223-.436.79-.983.79zm6.568 3.667c-1.402.935-3.344-.462-4.58-1.942a2.905 2.905 0 00-.677-.596c2.068-1.384 1.305-3.798-1.31-3.843-2.482.033-3.368 2.272-1.488 3.72-.333.171-.632.411-.89.719-1.236 1.48-3.178 2.876-4.58 1.941-1.331-1.047-.156-4.167.842-5.572 2.744-4.274 9.099-4.274 11.842 0 1.669 2.502 1.783 4.945.841 5.573zm2.074-7.928c0 1.15-.225 2.282-.655 3.337-.687-1.625-1.852-3.22-3.315-4.206.483.198 1.047-.186 1.035-.71 0-.42-.34-.762-.761-.762-.671-.002-1.012.819-.547 1.292a8.548 8.548 0 00-4.98-1.328c.077-2.232-.575-4.44-1.82-6.18a8.885 8.885 0 015.474.347l5.541 7.51c.018.232.028.467.028.7zm2.475-2.268l-.572 1.619-.526-.713a.766.766 0 00-.113-.154l-4.251-5.76 3.703 1.316a2.899 2.899 0 011.76 3.692z" fill="currentColor"></path></g><defs><clipPath id="clip0"><path fill="currentColor" d="M0 0h26v26H0z"></path></clipPath></defs></svg>