<svg xmlns="http://www.w3.org/2000/svg" width="26" height="26" viewBox="0 0 26 26" fill="none"><g clip-path="url(#clip0)" fill="currentColor"><path d="M13.762 6.094a.762.762 0 100-1.524.762.762 0 000 1.524z"></path><path d="M3.859 25.238a.762.762 0 001.523 0c0-1.565 1.039-2.714 2.353-3.808h2.98c.42 0 .761.341.761.761a.762.762 0 001.524 0c0-.267-.047-.523-.131-.761h.892c.42 0 .762.341.762.761a.762.762 0 001.524 0c0-.912-.538-1.7-1.313-2.067a6.85 6.85 0 002.836-5.55v-5.51a3.82 3.82 0 002.97-2.97h.838c.421 0 .762-.341.762-.762 0-2.1-1.708-3.809-3.808-3.809h-7.618a.763.763 0 01-.761-.761.762.762 0 00-1.524 0 2.287 2.287 0 002.252 2.284 3.539 3.539 0 00-.729 2.204c.03 1.981-1.037 3.84-2.856 4.973-1.997 1.243-3.237 3.494-3.237 5.875v9.14zm13.71-22.191h.763c.993 0 1.84.637 2.154 1.523H17.57V3.047zm0 3.046h1.393a2.296 2.296 0 01-1.392 1.393V6.093zM5.383 16.098c0-1.859.965-3.614 2.519-4.581 2.232-1.39 3.614-3.759 3.574-6.29-.019-1.226 1.071-2.18 2.286-2.18h2.285v11.527a5.338 5.338 0 01-5.332 5.332h-1.05C11.479 18.46 13 16.911 13 14.574V13a.762.762 0 10-1.523 0v1.574c0 2.007-1.707 3.33-3.513 4.73-.898.696-1.838 1.425-2.58 2.26v-5.466z"></path></g><defs><clipPath id="clip0"><path fill="currentColor" d="M0 0h26v26H0z"></path></clipPath></defs></svg>