<svg xmlns="http://www.w3.org/2000/svg" width="26" height="26" viewBox="0 0 26 26" fill="none"><g clip-path="url(#clip0)" fill="currentColor"><path d="M25.923 16.52c0-.386-.306-2.006-1.19-3.774.235-3.02.539-10.429-1.651-12.515a.812.812 0 00-.751-.201 9.377 9.377 0 00-6.488 5.598c-1.918-.451-3.783-.46-5.663-.005-.03.007-1.464-4.377-6.486-5.593a.812.812 0 00-.751.201c-2.607 2.484-1.64 12.447-1.66 12.483 0 .067-.927 1.555-1.209 3.83-.282 2.062.333 3.51.333 3.561C2.096 24.806 7.992 25.993 13 25.993c5.005 0 10.913-1.189 12.593-5.888 0-.005.619-1.603.33-3.585zm-3.7-14.776c1.33 2.183 1.013 8.697 1.009 8.692-1.618-2.024-3.685-3.49-5.833-4.32a7.753 7.753 0 014.824-4.372zm-18.42 0a7.755 7.755 0 014.82 4.365c-2.16.828-4.226 2.299-5.836 4.304-.072-2.14-.097-6.848 1.015-8.669zm17.419 20.974c-4.024 2.213-12.417 2.215-16.443 0-.989-.543-1.746-1.213-2.27-2.003h2.37a.812.812 0 100-1.625H1.8a6.185 6.185 0 01-.167-1.624H4.88a.812.812 0 100-1.624H1.842c.828-3.6 3.967-7.186 8.069-8.461 6.574-2.04 12.976 2.932 14.247 8.461H21.12a.812.812 0 000 1.624h3.246a6.184 6.184 0 01-.167 1.624h-3.08a.812.812 0 000 1.625h2.372c-.524.79-1.282 1.46-2.27 2.003z"></path><path d="M17.466 19.7a.812.812 0 00-.812.812c0 .783-.637 1.42-1.42 1.42-.646 0-1.191-.431-1.364-1.021 1.362-.671 2.086-2.847 1.135-3.79-.562-.558-1.376-.46-2.213-.468-.646-.005-1.315-.01-1.797.468-.961.954-.213 3.126 1.135 3.79a1.423 1.423 0 01-1.363 1.022 1.423 1.423 0 01-1.421-1.421.812.812 0 10-1.624 0c0 2.773 3.407 4.086 5.278 2.067 1.87 2.018 5.278.708 5.278-2.067a.812.812 0 00-.812-.813zm-3.654-1.408c-.008.573-.487 1.204-.812 1.204-.325 0-.804-.63-.812-1.204a19.94 19.94 0 011.624 0zM9.143 15.03c.783 0 1.42-.637 1.42-1.421s-.637-1.421-1.42-1.421c-.784 0-1.421.637-1.421 1.421s.637 1.421 1.42 1.421zM16.857 12.188c-.784 0-1.421.637-1.421 1.421s.637 1.421 1.421 1.421 1.421-.637 1.421-1.421-.637-1.421-1.42-1.421z"></path></g><defs><clipPath id="clip0"><path fill="currentColor" d="M0 0h26v26H0z"></path></clipPath></defs></svg>