<svg xmlns="http://www.w3.org/2000/svg" width="188" height="70" viewBox="0 0 188 70" fill="none"><path d="M82.208 33.632C80.504 33.632 78.932 33.32 77.492 32.696C76.076 32.048 74.912 31.136 74 29.96L77.24 26.072C78.608 27.92 80.168 28.844 81.92 28.844C84.296 28.844 85.484 27.452 85.484 24.668V12.68H76.628V8H91.28V24.344C91.28 27.44 90.512 29.768 88.976 31.328C87.44 32.864 85.184 33.632 82.208 33.632Z" fill="white"></path><path d="M106.041 8H111.873V33.2H106.041V8Z" fill="white"></path><path d="M149.965 8V33.2H145.177L132.613 17.9V33.2H126.853V8H131.677L144.205 23.3V8H149.965Z" fill="white"></path><path d="M180.803 33.2L174.719 24.452L168.743 33.2H162.047L171.371 20.384L162.515 8H169.139L174.935 16.172L180.623 8H186.923L178.139 20.168L187.535 33.2H180.803Z" fill="white"></path><path d="M82.208 36.7681C80.504 36.7681 78.932 37.0801 77.492 37.7041C76.076 38.3521 74.912 39.2641 74 40.4401L77.24 44.3281C78.608 42.4801 80.168 41.5561 81.92 41.5561C84.296 41.5561 85.484 42.9481 85.484 45.7321V57.7201H76.628V62.4001H91.28V46.0561C91.28 42.9601 90.512 40.6321 88.976 39.0721C87.44 37.5361 85.184 36.7681 82.208 36.7681Z" fill="url(#paint0_linear)"></path><path d="M106.041 62.4001H111.873V37.2001H106.041V62.4001Z" fill="url(#paint1_linear)"></path><path d="M149.965 62.4001V37.2001H145.177L132.613 52.5001V37.2001H126.853V62.4001H131.677L144.205 47.1001V62.4001H149.965Z" fill="url(#paint2_linear)"></path><path d="M180.803 37.2001L174.719 45.9481L168.743 37.2001H162.047L171.371 50.0161L162.515 62.4001H169.139L174.935 54.2281L180.623 62.4001H186.923L178.139 50.2321L187.535 37.2001H180.803Z" fill="url(#paint3_linear)"></path><path fill-rule="evenodd" clip-rule="evenodd" d="M26.506 0.219782C23.3425 0.914431 22.1937 1.55365 19.9394 3.87388C16.8593 7.04328 16.3195 7.15796 10.6702 5.84523C4.23157 4.34922 2.26151 4.5512 0.798367 6.85723C0.133785 7.90492 -0.0054932 8.60893 0.000162821 10.8976C0.00546534 13.1985 0.168422 13.9929 0.960618 15.5748C3.0636 19.7753 6.89662 23.2101 12.979 26.3434C19.0599 29.4761 21.1678 31.9585 21.9278 36.882C22.222 38.7882 21.3103 42.7576 19.8383 45.9797C17.2401 51.6682 16.5702 56.4445 17.6434 61.6351C18.3575 65.0886 19.9051 68.6055 21.0596 69.3982C23.2178 70.8796 27.0766 69.5905 31.4625 65.9228C35.4832 62.5605 37.0322 59.8886 38.01 54.6297C38.6377 52.0331 39.2596 48.9189 39.9483 47.027C41.6021 41.3855 48.2967 36.1789 56.2001 36.1946C57.3011 36.1968 58.2031 36.2446 58.9858 36.3689C60.4735 36.3513 60.0274 34.5946 59.5092 34.4595C57.5855 33.9578 56.3504 31.5424 55.3471 28.9149C54.9229 27.8034 54.2594 24.8537 53.873 22.3602C52.5029 13.5172 51.0645 9.92027 47.5524 6.552C45.1027 4.20267 40.2134 1.63195 36.356 0.66498C33.8072 0.0261104 28.4835 -0.21433 26.506 0.219782ZM50.0361 15.1417C48.34 9.5066 43.9983 5.50778 37.1471 3.26966C32.2352 1.66555 26.6715 1.8419 23.4553 3.70377C22.8883 4.03186 22.018 4.87584 21.5206 5.57915C19.1398 8.94603 16.3255 9.59772 10.3634 8.16234C6.00861 7.11431 3.655 7.00379 2.96744 7.81588C2.70868 8.12146 2.4319 9.36906 2.35271 10.5879C2.15157 13.6832 3.31211 15.9521 6.85526 19.3928C9.071 21.5443 10.3029 22.3859 13.9338 24.2283C21.1865 27.9081 23.8353 31.2399 24.1305 37.0552C24.2963 40.3196 23.7371 43.0285 22.212 46.3511C20.3901 50.3191 19.9125 52.0912 19.7213 55.5908C19.5145 59.3751 19.8549 61.7969 21.0239 64.8589C21.983 67.3707 22.6073 68.0099 23.8173 67.7179C25.513 67.3087 27.5782 66.1221 29.795 64.2831C33.8659 60.9061 34.8487 58.9774 36.2333 51.6484C37.898 42.8394 40.4785 39.214 47.4177 35.9365C49.0873 35.148 51.3441 34.4028 52.78 34.1654L55.2595 33.7563L54.3987 32.3742C53.2798 30.5775 52.2932 27.4424 51.7478 23.9498L51.3109 21.1531L49.3829 22.8806C46.1618 25.7656 35.679 30.1261 31.9637 30.1261C29.8805 30.1261 27.6666 28.9932 25.9782 27.0641C23.0293 23.6937 22.6656 21.193 24.6056 17.6255C25.8616 15.3157 29.4097 11.6415 32.8072 9.13139C35.8657 6.87213 36.5373 6.60536 37.1383 7.41087C37.793 8.28845 37.5377 8.60719 34.2831 10.9745C31.0043 13.3592 27.4485 16.9686 26.5502 18.8239C25.0637 21.8942 25.4961 23.4495 28.6214 26.2731C30.0287 27.5443 30.3935 27.7009 31.9492 27.7009C35.5069 27.7009 45.2483 23.6144 48.048 20.9477C50.0397 19.0505 50.6639 17.2274 50.0361 15.1417Z" fill="url(#paint4_linear)"></path><path d="M20.6644 9.17573C19.9705 9.99511 20.7634 11.4173 21.9144 11.4173C22.9615 11.4173 23.6123 10.222 23.0937 9.25195C22.6939 8.50464 21.2707 8.4596 20.6644 9.17573Z" fill="url(#paint5_linear)"></path><defs><linearGradient id="paint0_linear" x1="130.768" y1="36.7681" x2="130.768" y2="62.4001" gradientUnits="userSpaceOnUse"><stop stop-color="white" stop-opacity="0.5"></stop><stop offset="1" stop-color="#E8E8E8" stop-opacity="0"></stop></linearGradient><linearGradient id="paint1_linear" x1="130.768" y1="36.7681" x2="130.768" y2="62.4001" gradientUnits="userSpaceOnUse"><stop stop-color="white" stop-opacity="0.5"></stop><stop offset="1" stop-color="#E8E8E8" stop-opacity="0"></stop></linearGradient><linearGradient id="paint2_linear" x1="130.768" y1="36.7681" x2="130.768" y2="62.4001" gradientUnits="userSpaceOnUse"><stop stop-color="white" stop-opacity="0.5"></stop><stop offset="1" stop-color="#E8E8E8" stop-opacity="0"></stop></linearGradient><linearGradient id="paint3_linear" x1="130.768" y1="36.7681" x2="130.768" y2="62.4001" gradientUnits="userSpaceOnUse"><stop stop-color="white" stop-opacity="0.5"></stop><stop offset="1" stop-color="#E8E8E8" stop-opacity="0"></stop></linearGradient><linearGradient id="paint4_linear" x1="-3" y1="-3.58799e-07" x2="66" y2="70" gradientUnits="userSpaceOnUse"><stop stop-color="white"></stop><stop offset="1" stop-color="white" stop-opacity="0"></stop></linearGradient><linearGradient id="paint5_linear" x1="-3" y1="-3.58799e-07" x2="66" y2="70" gradientUnits="userSpaceOnUse"><stop stop-color="white"></stop><stop offset="1" stop-color="white" stop-opacity="0"></stop></linearGradient></defs></svg>