<svg xmlns="http://www.w3.org/2000/svg" width="50" height="50" viewBox="0 0 50 50" fill="none"><path d="m25.465 24.252-.465.459-.466-.459a4.633 4.633 0 0 0-6.51 0 4.438 4.438 0 0 0 0 6.396L25 37.5l6.977-6.852a4.437 4.437 0 0 0 0-6.396 4.635 4.635 0 0 0-6.512 0Z" fill="currentColor" stroke="none"></path><path d="m45.224 23.527-18.75-18.75a2.08 2.08 0 0 0-2.946 0l-18.75 18.75a2.083 2.083 0 0 0 1.473 3.556h2.083v14.583a4.17 4.17 0 0 0 4.167 4.167h25a4.17 4.17 0 0 0 4.166-4.167V27.083h2.084a2.084 2.084 0 0 0 1.473-3.556Zm-7.721 18.14H12.5v-19.97L25 9.198l12.5 12.5v9.553l.002 10.416Z" fill="currentColor" stroke="none"></path></svg>