<svg xmlns="http://www.w3.org/2000/svg" width="50" height="50" viewBox="0 0 50 50" fill="none"><path d="M25.25 16.584 13.07 3.236a1.39 1.39 0 0 0-2.153.125L8.695 6.472a4.958 4.958 0 0 0 .166 5.945l12.39 15.528-3.5 4.527a7.57 7.57 0 1 0 2.458 1.39l2.777-3.64 4.792 5.89a7.611 7.611 0 1 0 1.792-2.21L11.028 10.696a2.18 2.18 0 0 1-.07-2.612l1.223-1.708 13.083 14.32L38.32 6.375l1.222 1.708a2.181 2.181 0 0 1-.07 2.612L28.57 24.32l1.889 2.069 11.11-13.972a4.958 4.958 0 0 0 .167-5.959l-2.222-3.11a1.389 1.389 0 0 0-2.153-.126l-12.11 13.362Zm-5.055 23.069a4.805 4.805 0 1 1-9.61.028 4.805 4.805 0 0 1 9.61-.028Zm19.055 0a4.807 4.807 0 1 1-9.613.027 4.807 4.807 0 0 1 9.613-.027Z" fill="currentColor" stroke="none"></path></svg>