<svg xmlns="http://www.w3.org/2000/svg" width="50" height="50" viewBox="0 0 50 50" fill="none"><path d="M10.268 39.752c3.948 3.948 9.177 6.121 14.731 6.121s10.786-2.173 14.732-6.12c8.122-8.123 8.122-21.34 0-29.465-3.946-3.946-9.18-6.121-14.732-6.121s-10.785 2.175-14.731 6.12c-8.123 8.124-8.123 21.343 0 29.465Zm26.517-2.945a16.602 16.602 0 0 1-7.944 4.435c-.019-3.337 1.22-6.554 3.523-8.856 2.423-2.423 5.692-3.809 8.91-3.857a16.552 16.552 0 0 1-4.49 8.278Zm4.843-12.428c-4.425-.043-8.925 1.778-12.21 5.06-3.192 3.193-4.848 7.668-4.715 12.253a16.554 16.554 0 0 1-11.491-4.885 16.604 16.604 0 0 1-4.859-11.484c.16.004.321.03.482.03 4.406 0 8.666-1.676 11.743-4.75 3.292-3.292 5.12-7.79 5.063-12.236a16.558 16.558 0 0 1 11.144 4.869 16.583 16.583 0 0 1 4.843 11.143ZM13.214 13.236a16.6 16.6 0 0 1 8.277-4.519c-.038 3.24-1.427 6.508-3.856 8.94-2.3 2.297-5.505 3.533-8.83 3.523a16.52 16.52 0 0 1 4.409-7.944Z" fill="currentColor" stroke="none"></path></svg>