<svg xmlns="http://www.w3.org/2000/svg" width="17" height="17" viewBox="0 0 17 17" fill="none"><path d="M0.720784 0.713118L16.0758 8.27912C16.1595 8.32038 16.23 8.38426 16.2793 8.46352C16.3286 8.54279 16.3548 8.63427 16.3548 8.72762C16.3548 8.82097 16.3286 8.91245 16.2793 8.99171C16.23 9.07098 16.1595 9.13486 16.0758 9.17612L0.719784 16.7421C0.633756 16.7844 0.537394 16.801 0.442174 16.7901C0.346955 16.7791 0.256891 16.741 0.182709 16.6803C0.108526 16.6196 0.0533524 16.5389 0.023758 16.4477C-0.00583645 16.3566 -0.00860405 16.2588 0.0157845 16.1661L1.53678 10.4211C1.56144 10.3282 1.61238 10.2443 1.68351 10.1795C1.75463 10.1148 1.84292 10.0719 1.93778 10.0561L8.81878 8.90912C8.85979 8.90233 8.89845 8.88542 8.93128 8.85993C8.9641 8.83444 8.99005 8.80116 9.00678 8.76312L9.02478 8.70312C9.03412 8.64751 9.02438 8.59037 8.99715 8.541C8.96992 8.49162 8.9268 8.4529 8.87478 8.43112L8.81878 8.41512L1.89978 7.26212C1.8051 7.24611 1.71703 7.20318 1.6461 7.13845C1.57516 7.07373 1.52437 6.98994 1.49978 6.89712L0.0157845 1.29012C-0.00885774 1.19736 -0.0062816 1.09947 0.0232055 1.00813C0.0526927 0.916793 0.107845 0.835874 0.182076 0.775034C0.256307 0.714194 0.34648 0.676005 0.441828 0.665026C0.537175 0.654047 0.633668 0.670742 0.719784 0.713118H0.720784Z" fill="currentColor"></path></svg>