<svg xmlns="http://www.w3.org/2000/svg" width="30" height="30" viewBox="0 0 30 30" fill="none"><path d="M19.1245 26.1892C18.7432 26.1892 18.3577 26.115 17.9892 25.9624C16.8858 25.5058 16.1728 24.4431 16.1728 23.2552V20.7338C16.1728 20.0865 16.6974 19.5617 17.3447 19.5617C17.992 19.5617 18.5168 20.0865 18.5168 20.7338V23.2552C18.5168 23.6063 18.7747 23.7507 18.8855 23.7967C18.9984 23.8434 19.2881 23.9246 19.5408 23.6717L27.3141 15.8888C27.7721 15.4304 27.7721 14.6844 27.3141 14.226L19.5408 6.44331C19.2881 6.19039 18.9984 6.27142 18.8857 6.31811C18.7747 6.36411 18.5168 6.50877 18.5168 6.85987V13.944C18.5168 15.2365 17.4653 16.288 16.1728 16.288H1.17188C0.524598 16.288 0 15.7634 0 15.1161C0 14.4688 0.524598 13.944 1.17188 13.944H16.1728V6.85987C16.1728 5.67197 16.8858 4.60905 17.9892 4.15243C19.0965 3.6942 20.3565 3.94323 21.1991 4.78689L28.9723 12.5696C30.3424 13.9415 30.3424 16.1735 28.9723 17.5455L21.1991 25.3281C20.6369 25.891 19.8889 26.189 19.1245 26.1892Z" fill="currentColor"></path></svg>