<svg xmlns="http://www.w3.org/2000/svg" width="548" height="480" viewBox="0 0 548 480" fill="none"><g opacity=".5" fill="currentColor"><path d="M88.579 451.278c-.818-5.423-6.06-6.058-11.397-10.54-7.736-6.372-13.466-4.283-14.124.33-.658 4.612 4.778 7.721 5.28 12.575.68 4.808-3.852 9.207-2.066 13.48 1.785 4.274 7.883 4.936 13.805-3.145 4.124-5.325 9.06-7.231 8.502-12.7zM90.987 437.592c-3.745 3.538-8.684 4.442-11.044 2.051-2.36-2.39-1.068-7.269 2.775-10.853 3.843-3.584 8.653-4.425 11.06-2.018 2.408 2.407 1.166 7.221-2.79 10.82zM94.31 463.957c-4.54-2.5-9.52-2.178-11.141.773-1.622 2.952.76 7.297 5.3 9.797 4.539 2.5 9.503 2.146 11.108-.757 1.605-2.903-.682-7.135-5.267-9.813zM102.918 448.076c-5.207 1.595-10.293.202-11.331-3.188-1.038-3.391 2.325-7.386 7.662-9.044 5.337-1.658 10.261-.187 11.316 3.156 1.055 3.342-2.456 7.448-7.647 9.076zM103.139 450.938c-5.457-.25-10.014 2.356-10.206 5.859-.19 3.504 4.114 6.599 9.539 6.864 5.425.266 10.03-2.322 10.221-5.826.192-3.504-3.984-6.661-9.554-6.897z"></path></g><g opacity=".7" fill="currentColor"><path d="M498.026 107.779c-5.904-8.06-14.994-4.788-27.077-7.291-17.883-3.792-25.308 4.414-22.537 12.384 2.772 7.97 14.219 8.494 19.098 15.846 5.124 7.193 1.525 18.084 7.948 23.485 6.424 5.401 16.734 1.418 19.636-16.64 1.984-12.156 8.396-19.391 2.932-27.784zM490.425 83.685c-3.121 8.893-10.302 14.453-16.01 12.438-5.709-2.014-7.823-10.864-4.686-19.725 3.137-8.861 10.302-14.454 16.026-12.406 5.725 2.047 7.807 10.832 4.67 19.693zM517.852 123.553c-9.399-.27-17.134 4.475-17.294 10.532-.16 6.057 7.333 11.181 16.716 11.419 9.383.237 17.246-4.328 17.327-10.547.081-6.22-7.365-11.247-16.749-11.404zM518.411 90.616c-7.037 6.935-16.432 8.911-20.913 4.376-4.48-4.535-2.387-13.895 4.667-20.878 7.054-6.983 16.418-8.943 20.914-4.376 4.496 4.568 2.434 13.993-4.668 20.878zM521.361 94.888c-9.019 4.081-14.197 12.124-11.576 17.959 2.622 5.835 12.119 7.222 21.171 3.125s14.181-12.156 11.56-17.992c-2.622-5.835-12.119-7.221-21.155-3.092z"></path></g><path d="M40.37 282.246c7.662-1.578 8.116-9.102 13.904-16.877 8.47-11.44 5.004-19.436-1.645-19.993-6.649-.556-10.581 7.405-17.428 8.429-6.77 1.349-13.33-4.749-19.264-1.919-5.934 2.829-6.436 11.58 5.53 19.316 8.184 5.473 11.26 12.332 18.903 11.044zM60.013 284.785c-5.313-5.095-6.92-11.983-3.676-15.398 3.244-3.414 10.237-2.061 15.55 3.034 5.313 5.096 6.936 11.936 3.66 15.366-3.276 3.43-10.22 2.013-15.534-3.002zM22.932 291.403c3.188-6.598 2.31-13.639-1.944-15.715-4.253-2.076-10.295 1.609-13.516 8.223-3.22 6.614-2.31 13.638 1.944 15.714 4.253 2.076 10.295-1.608 13.516-8.222zM46.083 302.438c-2.683-7.29-1.07-14.572 3.622-16.319 4.692-1.747 10.69 2.856 13.326 10.049 2.636 7.193 1.086 14.524-3.606 16.271-4.691 1.747-10.642-2.759-13.342-10.001zM42.116 303.113c-.011-7.74-4.113-14.063-9.057-14-4.944.064-9 6.279-9.02 14.034-.021 7.755 4.08 14.079 9.057 14 4.977-.08 9.032-6.295 9.02-14.034zM331.83 305.019c-6.284-7.435-14.736-3.508-26.603-5.233-17.48-2.461-24.134 6.014-20.936 13.537 3.197 7.523 14.348 7.187 19.526 13.993 5.455 6.551 2.729 17.341 9.339 22.13 6.609 4.79 16.347.12 17.804-17.44 1.011-11.846 6.698-19.251.87-26.987zM322.759 282.117c-2.409 8.79-8.964 14.649-14.646 13.103-5.683-1.545-8.303-9.95-5.894-18.74 2.409-8.79 8.964-14.649 14.646-13.103 5.683 1.546 8.366 10.08 5.894 18.74zM352.151 318.748c-9.117.396-16.276 5.504-16.013 11.356.263 5.853 7.878 10.316 16.849 9.951 8.971-.366 16.275-5.504 16.012-11.356-.262-5.853-7.877-10.316-16.848-9.951zM350.353 286.991c-6.393 7.105-15.33 9.782-19.944 5.633-4.615-4.149-3.284-13.26 3.062-20.463 6.346-7.203 15.314-9.814 19.912-5.617 4.598 4.197 3.3 13.212-3.03 20.447zM353.452 290.91c-8.413 4.59-12.864 12.723-9.915 18.159 2.95 5.435 12.198 6.14 20.788 1.504 8.591-4.637 12.897-12.739 9.914-18.159-2.982-5.42-12.327-6.077-20.787-1.504z" fill="currentColor"></path><g opacity=".3" fill="currentColor"><path d="M221.262 391.803c4.698 1.42 7.123-2.442 12.584-4.922 8.044-3.61 8.598-8.934 5.268-11.257-3.33-2.322-7.974.767-11.977-.708-4.054-1.33-5.762-6.604-9.814-6.852-4.051-.247-6.922 4.271-2.872 12.064 2.662 5.254 2.293 9.967 6.811 11.675zM231.119 398.995c-1.333-4.332-.131-8.565 2.706-9.335 2.838-.771 6.13 1.971 7.462 6.303 1.333 4.332.131 8.565-2.707 9.335-2.837.771-6.031-2.019-7.461-6.303zM209.054 391.366c3.718-2.6 5.418-6.633 3.656-9.032-1.762-2.398-6.061-2.245-9.778.355-3.717 2.601-5.418 6.633-3.656 9.032s6.061 2.246 9.778-.355zM218.254 404.334c.757-4.741 3.823-8.19 6.87-7.697 3.047.493 4.93 4.719 4.174 9.459-.757 4.74-3.839 8.157-6.886 7.664-3.047-.493-4.836-4.524-4.158-9.426zM215.89 403.51c2.317-4.17 2.038-8.81-.656-10.317-2.695-1.506-6.778.67-9.127 4.856-2.348 4.186-2.037 8.811.657 10.317 2.694 1.506 6.778-.67 9.126-4.856z"></path></g><g opacity=".5" fill="currentColor"><path d="M178.349 231.567c6.327 7.856 15.247 3.983 27.611 5.989 18.12 2.955 25.31-5.739 22.068-13.602-3.241-7.863-14.728-7.806-19.998-14.969-5.531-6.956-2.445-18.08-9.227-23.227-6.783-5.148-16.988-.533-18.892 17.764-1.388 12.31-7.481 19.872-1.562 28.045zM187.181 255.387c2.704-9.093 9.615-15.044 15.473-13.302 5.858 1.742 8.424 10.533 5.721 19.626-2.704 9.093-9.631 15.012-15.489 13.27-5.857-1.742-8.314-10.306-5.705-19.594zM157.638 216.783c9.47-.246 17.033-5.349 16.871-11.491-.162-6.142-7.936-10.85-17.422-10.636-9.485.213-17.032 5.348-16.886 11.457.146 6.11 7.951 10.883 17.437 10.67zM158.691 249.903c6.784-7.294 16.073-9.82 20.831-5.459 4.757 4.361 3.13 13.856-3.606 21.247-6.736 7.392-16.122 9.804-20.863 5.475-4.741-4.328-3.146-13.888 3.638-21.263zM155.515 245.741c8.864-4.568 13.788-12.969 10.712-18.665-3.076-5.696-12.562-6.646-21.426-2.078-8.865 4.568-13.773 13.002-10.73 18.713 3.044 5.712 12.498 6.678 21.444 2.03z"></path></g><g opacity=".3" fill="currentColor"><path d="M307.666 112.039c2.732-3.89-.178-7.419-.86-13.31-.987-8.592-5.821-10.708-8.971-8.262-3.15 2.447-1.652 7.702-4.231 10.996-2.371 3.394-7.881 3.45-9.367 7.179-1.487 3.728 1.95 7.765 10.499 6.279 5.764-.942 9.957.843 12.93-2.882zM317.354 104.945c-4.474-.043-8.078-2.434-8.024-5.31.054-2.875 3.67-5.186 8.161-5.11 4.49.076 8.045 2.45 8.024 5.31-.022 2.859-3.719 5.169-8.161 5.11zM303.609 123.311c-1.334-4.251-4.609-7.041-7.367-6.189-2.757.852-3.91 5.021-2.609 9.288 1.301 4.267 4.641 7.025 7.399 6.173 2.757-.852 3.893-4.973 2.577-9.272zM318.5 118.597c-4.174-1.995-6.528-6.033-5.152-8.745 1.376-2.713 5.874-3.202 10.063-1.095 4.188 2.108 6.528 6.033 5.2 8.762-1.328 2.729-5.922 3.185-10.111 1.078zM317.004 120.564c-3.186-3.435-7.614-4.544-9.822-2.473-2.208 2.071-1.41 6.541 1.824 9.993 3.235 3.453 7.536 4.382 9.823 2.474 2.286-1.909 1.41-6.541-1.825-9.994z"></path></g><path d="M131.782 61.7c-3.045-11.69-14.707-11.828-27.184-20.12-18.306-12.136-30.355-6.188-30.778 3.97-.424 10.157 12.249 15.786 14.471 26.189l.079.162c2.627 10.327-6.268 20.97-1.392 29.889 4.875 8.919 18.299 8.968 29.308-10.162 7.502-12.778 17.927-18.1 15.496-29.928zM133.86 31.32c-7.414 8.562-17.923 11.637-23.45 6.846-5.527-4.791-4.012-15.597 3.419-24.207 7.43-8.61 17.907-11.67 23.433-6.879 5.527 4.791 4.029 15.63-3.402 24.24zM147.092 88.046c-10.442-4.42-21.275-2.512-24.06 4.172-2.786 6.685 3.315 15.814 13.79 20.218 10.476 4.405 21.276 2.512 24.078-4.22 2.802-6.733-3.332-15.765-13.808-20.17zM162.257 51.376c-10.999 4.718-22.363 2.79-25.421-4.28-3.057-7.069 3.401-16.694 14.4-21.41 10.998-4.718 22.362-2.79 25.436 4.311 3.073 7.102-3.417 16.662-14.415 21.38zM163.679 57.47c-11.93.633-21.308 7.376-20.81 15.041.497 7.665 10.503 13.42 22.271 12.866 11.768-.555 21.308-7.376 20.81-15.04-.497-7.666-10.34-13.5-22.271-12.867z" fill="currentColor"></path></svg>