<svg xmlns="http://www.w3.org/2000/svg" width="100" height="100" viewBox="0 0 100 100" fill="none"><path d="M50 88.281a1.465 1.465 0 100 2.93 1.465 1.465 0 000-2.93zm0-8.789a1.465 1.465 0 100 2.93 1.465 1.465 0 000-2.93zm0 17.578a1.465 1.465 0 100 2.93 1.465 1.465 0 000-2.93zm28.778-30.052l-6.52-2.194c3.604-2.568 5.863-6.781 5.863-11.33.01-.018 0-25.373 0-25.373 0-7.509-2.925-14.57-8.236-19.883C64.573 2.926 57.511 0 50 0a28.135 28.135 0 00-13.766 3.594 1.465 1.465 0 001.436 2.554A25.202 25.202 0 0150 2.93c6.728 0 13.055 2.62 17.814 7.379 4.757 4.76 7.377 11.085 7.377 17.812v.007a5.778 5.778 0 00-2.884-.77h-1.408a53.456 53.456 0 01-11.427-3.304 53.47 53.47 0 01-8.053-4.179 2.554 2.554 0 00-2.905.131 36.316 36.316 0 01-6.399 3.914 36.495 36.495 0 01-12.944 3.439h-1.478c-1.05 0-2.034.28-2.884.769v-.007c0-6.816 2.678-13.2 7.543-17.976a1.465 1.465 0 10-2.053-2.09c-5.43 5.33-8.42 12.457-8.42 20.066v25.373c0 4.549 2.26 8.762 5.864 11.33l-6.52 2.194a13.175 13.175 0 00-8.98 12.496v19.021a1.465 1.465 0 002.929 0V79.514a10.25 10.25 0 016.985-9.72l2.545-.856a17.312 17.312 0 00-.484 4.724c.055 1.5.308 2.974.746 4.404-2.845.855-4.925 3.497-4.925 6.617v5.961c0 1.475 1.2 2.675 2.674 2.675h1.642a1.465 1.465 0 100-2.93H22.97v-5.706a3.983 3.983 0 013.975-3.978h.007a3.983 3.983 0 013.974 3.978v5.706H29.54a1.465 1.465 0 100 2.93h1.641c1.475 0 2.675-1.2 2.675-2.675v-5.961c0-3.459-2.555-6.331-5.876-6.83a14.27 14.27 0 01-.834-4.3c-.072-1.95.268-3.93.985-5.768l9.993-3.363 10.484 10.484c.857.865 2.317.869 3.177 0l2.893-2.893a1.465 1.465 0 10-2.071-2.072l-2.41 2.41-9.286-9.285c1.377-1.197 2.004-3.022 1.863-4.862a21.903 21.903 0 007.148 1.22 22.26 22.26 0 007.305-1.196c-.239 1.868.627 3.9 2.08 5.012l-1.877 1.877a1.465 1.465 0 102.072 2.072l2.668-2.67 8.92 3.003a14.489 14.489 0 011.006 5.407 14.503 14.503 0 01-.92 4.914c-3.808.498-6.758 3.762-6.758 7.704 0 4.285 3.486 7.772 7.772 7.772 4.285 0 7.772-3.487 7.772-7.772 0-3.588-2.444-6.614-5.755-7.505a17.41 17.41 0 00.819-5.085 17.362 17.362 0 00-.5-4.28l3.318 1.117a10.247 10.247 0 016.985 9.72v19.021a1.465 1.465 0 002.93 0V79.513a13.175 13.175 0 00-8.98-12.495zm-6.546-36.73h.075a2.888 2.888 0 012.884 2.874v.022c-.007 1.607-1.346 2.92-2.96 2.874v-5.77zm-47.424 2.874a2.893 2.893 0 012.96-2.873v5.77a2.891 2.891 0 01-2.96-2.874v-.023zm15.036 25.836c0 1.05-.668 1.98-1.663 2.313l-6.72 2.262c-4-1.712-6.652-5.699-6.652-10.079V38.22c.919.531 1.935.787 3.05.77a22.526 22.526 0 0011.985 17.948v2.061zm10.087-2.503c-10.605-.037-19.233-8.797-19.233-19.528v-6.809a39.333 39.333 0 0012.678-3.594 39.23 39.23 0 006.705-4.07 56.415 56.415 0 008.268 4.266 56.373 56.373 0 0010.953 3.287v7.146a19.173 19.173 0 01-5.677 13.672c-3.724 3.71-8.374 5.648-13.694 5.63zm18.608 7.078l-6.722-2.263a2.435 2.435 0 01-1.66-2.312V56.98a22.288 22.288 0 005.536-4.04c3.79-3.776 6.048-8.677 6.467-13.952 1.077.015 2.149-.257 3.031-.77v15.276c0 4.38-2.653 8.367-6.652 10.078zm8.492 21.974a4.848 4.848 0 01-4.842 4.842 4.848 4.848 0 01-4.842-4.842 4.847 4.847 0 014.836-4.842h.009a4.848 4.848 0 014.84 4.842zm-17.56-54.064c-.808 0-1.464.656-1.464 1.465v3.351a1.465 1.465 0 002.93 0v-3.351c0-.809-.656-1.465-1.465-1.465zM52.08 45.401a3.643 3.643 0 01-1.951.665 3.65 3.65 0 01-2.21-.666 1.465 1.465 0 10-1.694 2.39A6.597 6.597 0 0050 48.998c1.573 0 3.034-.682 3.775-1.209a1.465 1.465 0 00-1.696-2.388zM40.528 31.483c-.81 0-1.465.656-1.465 1.465v3.351a1.465 1.465 0 002.93 0v-3.351c0-.809-.656-1.465-1.465-1.465z" fill="currentColor"></path></svg>