<svg xmlns="http://www.w3.org/2000/svg" width="533" height="680" viewBox="0 0 533 680" fill="none"><g opacity=".5" fill="currentColor"><path d="M217.007 270.161c2.331 5.906 8.425 5.262 15.462 8.8 10.318 5.17 16.25 1.308 15.825-4.007-.425-5.314-7.408-7.474-9.202-12.761-1.989-5.233 1.911-11.207-1.149-15.695-3.06-4.489-10.121-3.509-14.659 7.048-3.199 7.179-8.28 10.608-6.277 16.615zM217.82 286.16c3.321-4.832 8.622-7.214 11.81-5.021 3.187 2.194 3.064 7.921-.265 12.868-3.329 4.948-8.622 7.214-11.783 5.029-3.161-2.184-3.091-7.928.238-12.876zM207.369 257.375c5.727 1.661 11.237-.002 12.298-3.708 1.061-3.706-2.727-8.047-8.462-9.681-5.736-1.634-11.246.029-12.298 3.708-1.052 3.679 2.7 8.038 8.462 9.681zM201.754 277.489c5.438-3.165 11.494-2.875 13.543.632 2.05 3.508-.743 8.897-6.181 12.062-5.439 3.165-11.494 2.876-13.544-.632-2.049-3.508.726-8.932 6.182-12.062zM200.614 274.366c6.217-.929 10.573-5.217 9.97-9.169-.603-3.953-6.29-6.37-12.497-5.29-6.208 1.081-10.573 5.217-9.952 9.206.621 3.988 6.299 6.343 12.479 5.253z"></path></g><path d="M85.513 376.365c-8.103-3.619-13.538 2.978-24.015 6.363-15.383 4.919-17.527 14.571-11.886 19.487 5.64 4.916 14.714.216 21.697 3.736l.134.043c7.114 3.208 9.142 13.216 16.52 14.528 7.378 1.313 13.534-6.41 7.722-21.496-4.011-10.182-2.304-18.498-10.172-22.661zM69.06 361.179c1.492 8.206-1.563 15.668-6.846 16.636s-10.797-4.882-12.324-13.07c-1.528-8.188 1.536-15.677 6.819-16.645 5.283-.968 10.877 4.908 12.351 13.079zM107.679 379.662c-7.22 4.004-11.228 11.125-8.656 15.75 2.572 4.625 10.586 5.346 17.939 1.386 7.354-3.96 11.229-11.125 8.63-15.759-2.599-4.633-10.577-5.284-17.913-1.377zM93.639 353.995c-2.329 8.497-8.667 14.149-14.144 12.629-5.477-1.52-7.982-9.613-5.662-18.084 2.32-8.471 8.693-14.141 14.17-12.621 5.477 1.521 7.947 9.72 5.636 18.076zM97.768 356.11c-5.288 7.148-5.563 15.606-.937 18.919 4.626 3.313 12.5.203 17.619-6.97 5.12-7.173 5.537-15.614.938-18.919-4.599-3.304-12.5-.203-17.62 6.97zM379.111 239.937c10.359.421 13.491-8.908 23.468-16.922 14.691-11.77 12.983-23.123 4.795-26.119-8.189-2.997-16.054 5.884-25.1 4.973l-.161-.052c-9.08-.537-15.455-10.543-24.005-8.895-8.551 1.647-12.028 12.579.568 26.537 8.569 9.538 10.178 19.38 20.435 20.478zM403.352 249.56c-5.075-8.281-4.824-17.663.498-20.925 5.322-3.263 13.785.799 18.824 9.098 5.04 8.298 4.86 17.645-.489 20.898-5.349 3.254-13.784-.799-18.833-9.071zM353.677 245.57c6.31-7.377 7.593-16.659 2.829-20.727-4.764-4.068-13.673-1.502-20.044 5.972-6.371 7.475-7.584 16.632-2.829 20.727 4.756 4.095 13.789 1.422 20.044-5.972zM379.589 267.48c-.99-10.201 3.559-18.98 10.125-19.619 6.565-.638 12.704 7.102 13.658 17.321.954 10.219-3.524 18.962-10.117 19.592-6.592.629-12.668-7.12-13.666-17.294zM374.261 267.043c2.612-9.914-.479-19.292-6.854-20.958-6.376-1.665-13.659 4.98-16.272 14.893-2.613 9.913.478 19.292 6.854 20.957 6.376 1.666 13.667-5.006 16.272-14.892zM232.066 114.421c-3.114 2.385-1.713 5.888-2.652 10.669-1.378 7.033 1.912 9.91 5.034 8.77 3.122-1.141 3.209-5.667 6.068-7.633 2.769-2.054 7.072-.651 9.153-3.314 2.081-2.663.411-6.609-6.671-7.559-4.805-.68-7.719-3.168-10.932-.933zM222.672 117.567c3.528 1.15 5.75 3.946 5.009 6.218-.741 2.272-4.211 3.122-7.712 1.98-3.501-1.142-5.724-3.938-4.991-6.183.732-2.246 4.14-3.175 7.694-2.015zM238.07 106.53c-.021 3.69 1.892 6.71 4.283 6.721 2.392.011 4.311-2.971 4.332-6.661.021-3.691-1.865-6.701-4.257-6.713-2.391-.01-4.31 2.972-4.358 6.653zM225.278 106.587c2.782 2.711 3.632 6.36 1.892 8.159-1.74 1.798-5.468 1.173-8.322-1.68-2.854-2.853-3.624-6.387-1.857-8.177 1.767-1.79 5.398-1.049 8.287 1.698zM226.835 105.35c1.8 3.544 4.862 5.49 7.139 4.399 2.278-1.091 2.744-4.784 1.059-8.321-1.685-3.536-4.871-5.463-7.14-4.399-2.269 1.064-2.752 4.81-1.058 8.321z" fill="currentColor"></path><g opacity=".3" fill="currentColor"><path d="M312.362 593.323c3.632-.709 3.903-4.258 6.697-7.931 4.082-5.352 2.511-9.148-.576-9.474-3.086-.327-5.081 3.429-8.305 3.886-3.16.625-6.282-2.315-9.127-1.025-2.845 1.29-3.095 5.408 2.503 9.186 3.741 2.581 5.131 5.844 8.808 5.358zM321.624 594.569c-2.486-2.438-3.219-5.723-1.637-7.307 1.581-1.584 4.857-.929 7.335 1.535 2.478 2.465 3.192 5.715 1.637 7.307-1.554 1.593-4.874.895-7.335-1.535zM304.005 597.458c1.545-3.104 1.213-6.436-.794-7.446-2.006-1.009-4.902.708-6.474 3.804-1.572 3.095-1.186 6.445.821 7.454 2.006 1.01 4.867-.689 6.447-3.812zM314.903 602.846c-1.266-3.37-.408-6.906 1.827-7.685 2.235-.779 5.022 1.372 6.236 4.814 1.213 3.442.408 6.906-1.809 7.721-2.217.815-5.041-1.408-6.254-4.85zM313.002 603.143c.066-3.645-1.82-6.656-4.176-6.685-2.356-.03-4.319 2.909-4.367 6.59-.048 3.681 1.864 6.523 4.176 6.686 2.312.163 4.32-2.909 4.367-6.591z"></path></g><g opacity=".5" fill="currentColor"><path d="M482.201 422.1c-5.858 5.631-2.16 12.515-2.967 22.693-1.177 14.758 6.313 19.804 12.268 16.778 5.955-3.026 5.273-12.358 10.684-17.07 5.213-4.924 14.372-3.179 18.016-8.911 3.644-5.732-.736-13.697-15.53-13.939-9.889-.504-16.388-4.872-22.471.449zM463.579 430.783c7.478 1.552 12.604 6.685 11.702 11.537-.903 4.851-7.882 7.484-15.351 5.906-7.469-1.579-12.604-6.685-11.701-11.537.902-4.851 7.98-7.423 15.35-5.906zM492.597 404.462c.84 7.579 5.446 13.311 10.349 12.781 4.904-.529 8.232-7.104 7.374-14.719-.857-7.614-5.445-13.31-10.349-12.781-4.904.53-8.177 7.122-7.374 14.719zM466.081 407.524c6.344 5.027 8.985 12.248 5.811 16.359-3.174 4.11-10.912 3.449-17.264-1.462-6.352-4.911-8.95-12.265-5.785-16.349 3.166-4.084 10.886-3.459 17.238 1.452zM469.218 404.703c4.284 6.81 11.31 10.108 15.702 7.34 4.392-2.767 4.494-10.512.219-17.348-4.275-6.837-11.31-10.108-15.702-7.34-4.392 2.767-4.494 10.512-.219 17.348z"></path></g><g opacity=".3" fill="currentColor"><path d="M492.463 121.25c-2.954.989-2.811 3.993-4.727 7.331-2.84 4.989-1.079 7.929 1.543 7.868 2.622-.062 3.863-3.413 6.507-4.177 2.609-.835 5.502 1.262 7.707-.148s1.996-4.85-3.087-7.396c-3.318-1.703-4.926-4.298-7.943-3.478zM484.595 121.257c2.376 1.781 3.291 4.416 2.153 5.908-1.137 1.492-3.947 1.315-6.297-.457-2.349-1.772-3.29-4.415-2.144-5.934 1.146-1.52 3.947-1.315 6.288.483zM499.093 116.877c-.872 2.673-.294 5.524 1.488 6.134 1.782.611 3.931-1.172 4.856-3.828.926-2.656.294-5.524-1.515-6.143-1.808-.62-3.922 1.057-4.829 3.837zM489.294 113.562c1.404 2.765 1.085 5.736-.687 6.637-1.772.901-4.351-.621-5.738-3.35-1.386-2.73-1.094-5.71.687-6.638 1.781-.927 4.325.612 5.738 3.351zM490.837 113.089c.358 3.074 2.266 5.383 4.238 5.139 1.972-.244 3.288-2.92 2.922-5.968-.366-3.047-2.265-5.382-4.237-5.138-1.972.244-3.289 2.92-2.923 5.967z"></path></g><g opacity=".7" fill="currentColor"><path d="M513.671 577.587c3.601 7.09 10.934 5.459 20.015 8.983 13.279 5.16 20.107-.273 18.954-6.8-1.152-6.528-9.947-8.303-12.805-14.588-3.071-6.178 1.066-14.145-3.251-19.132-4.316-4.986-12.839-3.152-17.215 10.444-3.036 9.125-8.89 13.929-5.698 21.093zM516.551 597.13c3.524-6.452 9.752-9.862 13.926-7.613 4.175 2.249 4.692 9.368 1.168 15.819-3.524 6.452-9.734 9.897-13.9 7.622-4.166-2.276-4.619-9.315-1.194-15.828zM500.271 563.101c7.245 1.358 13.85-1.397 14.701-6 .851-4.602-4.31-9.539-11.528-10.888-7.218-1.349-13.851 1.397-14.701 5.999-.851 4.603 4.336 9.46 11.528 10.889zM495.791 588.258c6.318-4.505 13.801-4.874 16.725-.785 2.924 4.089.132 11.016-6.168 15.556-6.301 4.54-13.802 4.874-16.726.785-2.924-4.089-.158-10.936 6.169-15.556zM494.017 584.721c7.499-2.049 12.477-7.612 11.157-12.449-1.32-4.838-8.481-7.085-16.087-5.07-7.606 2.014-12.521 7.746-11.166 12.476 1.354 4.73 8.632 7.075 16.096 5.043z"></path></g><g opacity=".7" fill="currentColor"><path d="M301.061 440.004c4.597-8.201-1.871-14.57-4.397-25.952-3.724-16.683-13.692-19.846-19.409-14.376-5.717 5.47-1.644 15.464-6.009 22.499l-.043.134c-4.097 7.211-14.828 8.383-16.905 16.017-2.076 7.633 5.429 14.902 21.925 10.109 11.101-3.122 19.821-.485 24.838-8.431zM318.615 424.081c-8.778.804-16.333-3.139-16.849-8.809-.516-5.669 6.162-10.914 14.976-11.736 8.813-.822 16.341 3.112 16.857 8.782.516 5.669-6.171 10.941-14.984 11.763zM295.438 463.043c-3.474-8.113-10.581-12.886-15.749-10.638-5.168 2.247-6.671 10.66-3.17 18.782 3.501 8.121 10.581 12.886 15.785 10.62 5.204-2.266 6.635-10.642 3.134-18.764zM323.726 450.651c-8.715-3.286-14.05-10.498-11.952-16.113 2.098-5.616 10.913-7.531 19.628-4.245 8.715 3.287 14.051 10.499 11.944 16.141-2.106 5.642-10.904 7.504-19.62 4.217zM321.237 454.838c-7.035-6.081-15.933-7.357-19.788-2.788-3.856 4.569-1.348 13.195 5.554 19.232 6.901 6.037 15.932 7.356 19.788 2.787 3.856-4.568 1.481-13.151-5.554-19.231z"></path></g></svg>