<svg xmlns="http://www.w3.org/2000/svg" width="100" height="100" viewBox="0 0 100 100" fill="none"><g fill="currentColor"><path d="M67.664 92.58a1.465 1.465 0 00-1.9.826l-1.81 4.6c-.666 1.69 2.006 2.902 2.725 1.073l1.811-4.6a1.464 1.464 0 00-.826-1.9zm31.595-24.834a3.677 3.677 0 00-2.97-1.487H90.1a1.59 1.59 0 01-1.268-.638l-4.98-6.697a10.791 10.791 0 00-7.34-4.254c-.54-2.019-2.636-3.34-4.694-2.945l-10.91 2.089c-2.623.502-4.089 3.49-2.83 5.88l1.62 3.074-8.512 11.082c-3.205-2.585-7.403-4.242-11.037-6.134a6.301 6.301 0 01-3.402-5.607v-1.973a32.482 32.482 0 005.535-1.724l.02-.008a10.432 10.432 0 006.475-9.675v-7.105h1.406c3.964 0 5.818-5.146 2.76-7.677v-11.15C52.944 10.23 42.723.008 30.158.008a22.823 22.823 0 00-14.496 5.205c-1.414 1.167.386 3.48 1.865 2.26a19.886 19.886 0 0112.631-4.535c10.95 0 19.857 8.908 19.857 19.857v10.156h-1.237V22.659a6.816 6.816 0 00-6.808-6.808c-2.017-.105-4.015.579-5.456 2.02-6.287 6.288-14.723 11.005-23.782 11.189a1.465 1.465 0 00-1.435 1.464v2.428H10.3V22.797a19.77 19.77 0 013.272-10.924c1.01-1.53-1.39-3.213-2.445-1.614A22.69 22.69 0 007.37 22.797v10.965c-3.34 2.392-1.603 7.862 2.52 7.862h1.405v7.11c0 4.252 2.54 8.048 6.47 9.672a32.41 32.41 0 006.347 1.892v1.811a6.301 6.301 0 01-3.403 5.608l-7.413 3.859A24.623 24.623 0 000 93.486v5.057c0 1.833 2.93 1.917 2.93 0v-5.057a21.7 21.7 0 0111.719-19.312l5.215-2.714 10.02 10.02c.69.572 1.38.572 2.071 0l9.685-9.685c2.572 1.339 5.503 2.546 7.76 4.38L32.904 97.65c-1.127 1.466 1.184 3.268 2.323 1.785L61.201 65.62l3.002 5.7c1.626 3.086 6.284 2.718 7.426-.555l4.599-13.178a7.845 7.845 0 015.274 3.084l4.98 6.697c1.236 1.663 3.16 1.908 5.068 1.819.403 2.225 1.677 4.728 3.749 5.865-1.616 2.687-4.57 4.43-7.795 4.43H74.317a4.485 4.485 0 00-4.197 2.858L68.286 87c-.666 1.69 2.006 2.9 2.726 1.073l1.834-4.66a1.571 1.571 0 011.47-1.001h13.188c5.289 0 10.027-3.543 11.522-8.617l.82-2.78a3.675 3.675 0 00-.587-3.27zM50.183 35.882c1.76 0 1.84 2.812 0 2.812h-1.406v-2.812h1.406zM9.89 38.694c-1.76 0-1.84-2.812 0-2.812h1.406v2.812H9.89zm4.336 10.04V31.926c9.276-.604 17.888-5.513 24.36-11.985 2.425-2.426 7.261-.932 7.261 2.717v26.07a7.511 7.511 0 01-4.662 6.967l-.02.008c-7.184 2.964-15.097 2.962-22.28-.006a7.513 7.513 0 01-4.66-6.965zM30.92 78.372l-8.346-8.345c3.372-2.033 4.564-5.569 4.469-9.314 2.25.213 4.53.184 6.774-.085-.1 4.045 1.29 7.828 5.099 9.748l-7.996 7.996zm42.73-22.288L68.863 69.8c-.324.928-1.61 1.024-2.068.155l-6.124-11.627c-.287-.81-.025-1.356.788-1.637l10.91-2.09c.85-.163 1.565.667 1.28 1.483zm22.639 13.103c.582.084.831.417.747 1l-.623 2.112c-.891-.648-1.548-1.91-1.864-3.112h1.74z"></path><path d="M24.508 92.158h-3.455v-3.455c0-1.833-2.93-1.917-2.93 0v3.455h-3.455c-1.832 0-1.916 2.93 0 2.93h3.456v3.455c0 1.833 2.93 1.916 2.93 0v-3.456h3.454c1.834 0 1.917-2.93 0-2.93z"></path></g></svg>