<svg xmlns="http://www.w3.org/2000/svg" width="100" height="100" viewBox="0 0 100 100" fill="none"><path d="M40.606 31.313c-.809 0-1.464.655-1.464 1.464v1.566a1.465 1.465 0 102.93 0v-1.566c0-.809-.657-1.465-1.466-1.465zm18.788 0c-.81 0-1.465.655-1.465 1.464v1.566a1.465 1.465 0 102.93 0v-1.566c0-.809-.657-1.465-1.465-1.465zM55.74 42.708a1.464 1.464 0 00-2.072-.014c-.534.528-1.816 1.144-3.668 1.144s-3.133-.616-3.668-1.144a1.464 1.464 0 10-2.058 2.086c1.262 1.244 3.402 1.987 5.726 1.987s4.464-.743 5.726-1.987a1.464 1.464 0 00.014-2.072zM42.172 26.616H39.04a1.465 1.465 0 100 2.93h3.13a1.465 1.465 0 100-2.93zm18.788 0h-3.132a1.465 1.465 0 100 2.93h3.131a1.465 1.465 0 100-2.93z" fill="currentColor"></path><path d="M81.373 69.773l-10.559-3.246a3.38 3.38 0 00-.081-.96 3.374 3.374 0 00-1.779-2.248l-6.53-3.265v-4.656C67.31 52 70.749 46.66 71.609 40.505h.87c2.855 0 5.304-2.121 5.575-4.83a5.402 5.402 0 00-1.362-4.157 5.377 5.377 0 00-1.741-1.276V13.99c0-5.988-4.871-10.859-10.86-10.859h-.247C61.206 1.186 57.332 0 53.033 0c-9.15 0-13.353 1.906-18.22 4.113-2.6 1.18-5.289 2.399-9.1 3.513a1.465 1.465 0 00-.94 1.971c.044.107.699 1.626 2.387 3.472-.729.897-2.109 3.192-2.109 7.705v9.533c-1.685.804-2.916 2.396-3.103 4.27a5.402 5.402 0 001.361 4.157 5.39 5.39 0 003.99 1.77h1.093c.86 6.157 4.298 11.499 9.184 14.896v4.654l-6.53 3.264c-.9.45-1.548 1.27-1.779 2.248a3.385 3.385 0 00-.081.96l-10.558 3.247a10.804 10.804 0 00-7.668 10.379v18.383a1.465 1.465 0 102.93 0V80.152c0-3.503 2.25-6.55 5.599-7.579l10.982-3.376 1.939 2.584-2.203 2.203a4.59 4.59 0 00-.86 5.305l4.192 8.387h-3.993V86.01a1.465 1.465 0 10-2.93 0v1.666h-6.363c-.809 0-1.465.656-1.465 1.465v9.394c0 .809.656 1.464 1.465 1.464H35.91c.809 0 1.465-.655 1.465-1.464v-3.19l1.922 3.845a1.465 1.465 0 102.62-1.31l-9.95-19.901a1.664 1.664 0 01.312-1.924l3.1-3.1a1.465 1.465 0 00.137-1.916l-3.319-4.424a.447.447 0 01-.078-.375.447.447 0 01.238-.301l5.77-2.885 4.072 13.965a1.465 1.465 0 002.813-.82l-.642-2.202a17.161 17.161 0 0011.261.001l-5.63 19.305-3.162-10.839a1.464 1.464 0 10-2.812.82l4.567 15.66a1.465 1.465 0 002.813 0l10.468-35.89 5.77 2.885a.446.446 0 01.237.3.447.447 0 01-.078.376l-3.319 4.424c-.437.583-.38 1.4.136 1.915l3.101 3.101c.509.508.634 1.281.313 1.924l-9.951 19.9a1.465 1.465 0 002.62 1.311l9.95-19.9a4.59 4.59 0 00-.86-5.306l-2.203-2.203 1.938-2.584 10.983 3.377a7.889 7.889 0 015.599 7.579v18.382a1.465 1.465 0 102.93 0V80.152c0-4.798-3.082-8.97-7.668-10.38zM34.445 97.07H21.718v-6.464h4.898v.1a1.465 1.465 0 102.93 0v-.1h4.899v6.464zm1.578-90.288c4.745-2.153 8.494-3.852 17.01-3.852 5.405 0 10.234 2.261 11.234 5.26a1.465 1.465 0 002.78-.926 6.904 6.904 0 00-.3-.744c3.07 1.095 5.273 4.03 5.273 7.47v15.757h-1.666a1.668 1.668 0 01-1.667-1.666v-1.566c0-6.791-4.916-11.786-5.126-11.995a1.467 1.467 0 00-1.477-.361c-8.131 2.568-19.597 4.732-28.038.461-3.003-1.52-4.777-3.451-5.71-4.741 3.11-1.022 5.52-2.115 7.687-3.097zM59.495 60.75l-2.798 9.592a14.188 14.188 0 01-6.696 1.678c-2.343 0-4.648-.579-6.697-1.676l-2.798-9.594v-3.634A21.688 21.688 0 0050 59.293c3.401 0 6.623-.784 9.495-2.178v3.635zM50 56.363c-10.415 0-18.888-8.473-18.888-18.888a1.465 1.465 0 10-2.93 0v.1H27.3a2.457 2.457 0 01-1.817-.806 2.435 2.435 0 01-.62-1.9c.124-1.23 1.292-2.192 2.66-2.192h2.125a4.601 4.601 0 004.596-4.596v-5.53a1.465 1.465 0 10-2.93 0v5.53c0 .919-.747 1.666-1.666 1.666h-1.666v-8.973c0-3.408.916-5.103 1.339-5.704a20.129 20.129 0 003.173 2.045c3.32 1.73 7.27 2.689 11.743 2.848 5.243.189 11.235-.73 17.82-2.729 1.163 1.408 3.702 4.976 3.702 9.28v1.567a4.601 4.601 0 004.596 4.596h2.348a2.454 2.454 0 012.437 2.707c-.124 1.229-1.292 2.191-2.66 2.191h-.661v-.085a1.465 1.465 0 00-2.93-.001C68.88 47.896 60.408 56.363 50 56.363z" fill="currentColor"></path><path d="M79.747 88.459h-2.449v-2.45a1.465 1.465 0 10-2.93 0v2.45h-2.45a1.465 1.465 0 100 2.93h2.45v2.448a1.465 1.465 0 102.93 0v-2.449h2.45a1.465 1.465 0 100-2.93z" fill="currentColor"></path></svg>