<svg xmlns="http://www.w3.org/2000/svg" width="51" height="49" viewBox="0 0 51 49" fill="none"><path fill-rule="evenodd" clip-rule="evenodd" d="M18.4837 11.0007C23.9643 10.932 27.8628 15.8138 31.2482 20.2207C34.5898 24.5706 37.7202 29.4544 36.854 34.914C35.928 40.7504 32.171 46.0906 26.7971 48.276C21.7575 50.3253 16.4981 47.6214 11.6332 45.1703C6.84899 42.7598 1.41741 40.2027 0.224933 34.888C-0.968459 29.5691 2.81939 24.836 6.10606 20.5362C9.45277 16.1578 13.0488 11.0689 18.4837 11.0007Z" fill="#AEE8E6"></path><g clip-path="url(#clip0)"><path fill-rule="evenodd" clip-rule="evenodd" d="M45.495 35.6549C45.495 43.7324 39.6475 36.2874 32.26 36.2874C24.8825 36.2874 18.7525 43.7349 18.7525 35.6549C18.7525 31.8824 21.8325 27.9124 23.9775 24.5224C26.4225 20.6549 28.19 17.6074 32.125 17.6074C36.075 17.6074 38.035 20.8424 40.4875 24.7374C42.61 28.1149 45.495 31.8999 45.495 35.6549Z" fill="#FF7844"></path><path d="M25.775 14.405C28.4122 14.405 30.55 11.1803 30.55 7.2025C30.55 3.22467 28.4122 0 25.775 0C23.1378 0 21 3.22467 21 7.2025C21 11.1803 23.1378 14.405 25.775 14.405Z" fill="#FF7844"></path><path d="M38.34 14.63C41.0131 14.63 43.18 11.355 43.18 7.315C43.18 3.27504 41.0131 0 38.34 0C35.6669 0 33.5 3.27504 33.5 7.315C33.5 11.355 35.6669 14.63 38.34 14.63Z" fill="#FF7844"></path><path d="M16.764 24.4706C19.323 23.9958 20.9001 20.9301 20.2866 17.6231C19.6731 14.3161 17.1013 12.0202 14.5423 12.4949C11.9833 12.9696 10.4062 16.0353 11.0197 19.3423C11.6332 22.6493 14.205 24.9453 16.764 24.4706Z" fill="#FF7844"></path><path fill-rule="evenodd" clip-rule="evenodd" d="M41.2875 18.2624C40.425 21.5774 41.79 24.5224 44.3225 24.8299C46.8575 25.1449 49.6125 22.7074 50.48 19.3924C51.3425 16.0724 49.98 13.1274 47.445 12.8174C44.905 12.5024 42.15 14.9424 41.2875 18.2624Z" fill="#FF7844"></path></g><defs><clipPath id="clip0"><rect width="40" height="40" fill="white" transform="translate(11)"></rect></clipPath></defs></svg>