<svg xmlns="http://www.w3.org/2000/svg" width="51" height="49" viewBox="0 0 51 49" fill="none"><path fill-rule="evenodd" clip-rule="evenodd" d="M18.4837 11.0007C23.9643 10.932 27.8628 15.8138 31.2482 20.2207C34.5898 24.5706 37.7202 29.4544 36.854 34.914C35.928 40.7504 32.171 46.0906 26.7971 48.276C21.7575 50.3253 16.4981 47.6214 11.6332 45.1703C6.84899 42.7598 1.41741 40.2027 0.224933 34.888C-0.968459 29.5691 2.81939 24.836 6.10606 20.5362C9.45277 16.1578 13.0488 11.0689 18.4837 11.0007Z" fill="#AEE8E6"></path><path d="M44.2583 6.74176C40.742 3.22545 35.9728 1.25 31 1.25C26.0272 1.25 21.258 3.22545 17.7417 6.74176C14.2254 10.2581 12.25 15.0272 12.25 20C12.25 24.9729 14.2254 29.742 17.7417 33.2583C21.258 36.7746 26.0272 38.7501 31 38.7501C35.9728 38.7501 40.742 36.7746 44.2583 33.2583C47.7746 29.742 49.75 24.9729 49.75 20C49.75 15.0272 47.7746 10.2581 44.2583 6.74176ZM33.0776 8.41606C33.7995 7.03574 33.9749 5.55965 33.6019 3.95934C40.4821 5.07137 45.9287 10.5179 47.0408 17.3982C45.4404 17.0252 43.9643 17.2006 42.584 17.9225C40.5461 18.9882 39.0394 21.11 37.5823 23.1624C36.3384 24.9142 35.0522 26.7257 33.4817 27.8429C31.8139 29.0296 30.0007 29.2961 27.7756 28.6807C25.9455 28.1749 24.3845 26.6427 24.3708 26.6293C24.3552 26.6136 22.8221 25.0437 22.3194 23.2245C21.7044 20.9993 21.9706 19.1861 23.1571 17.5183C24.2743 15.948 26.0859 14.6617 27.8377 13.4178C29.8898 11.961 32.0119 10.4539 33.0776 8.41606ZM31 36.25C22.0398 36.25 14.75 28.9603 14.75 20C14.75 11.0587 22.0091 3.78129 30.9434 3.75074C32.1797 7.0391 30.0688 8.76754 26.3906 11.3793C22.6888 14.0079 18.0823 17.2784 19.9097 23.8907C20.5944 26.3677 22.5214 28.3154 22.6031 28.3972C22.6849 28.4789 24.6328 30.4057 27.1094 31.0904C28.0392 31.3566 29.0008 31.4956 29.968 31.5037C34.1308 31.5037 36.7001 28.618 38.7636 25.8036C39.0584 25.4015 39.3432 25.0003 39.6205 24.6097C42.2324 20.9312 43.9609 18.8202 47.2491 20.0566C47.2188 28.9909 39.9413 36.25 31 36.25Z" fill="#FF7844"></path></svg>