<svg xmlns="http://www.w3.org/2000/svg" width="80" height="80" viewBox="0 0 80 80" fill="none"><path d="M76.835 18.212c.862-2.893 2.276-5.944.592-8.086-2.22-2.826-5.39-.613-8.788.572C61.462 13.2 50.82 10.66 40 10.66c-7.775 0-15.458 1.311-21.83 1.12.317 1.321.826 2.699 1.227 4.046 1.58 5.31-1.777 11.92-1.777 24.174s3.357 18.864 1.777 24.173c-.401 1.347-.91 2.724-1.227 4.045 6.372-.19 14.055 1.12 21.83 1.12 10.82 0 21.462-2.538 28.639-.036 3.397 1.184 6.568 3.397 8.788.572 1.684-2.143.27-5.193-.592-8.087-1.424-4.785 1.603-10.743 1.603-21.787 0-11.046-3.027-17.004-1.603-21.789zM40 23.49c2.315 0 4.19 2.033 4.19 4.541 0 2.509-1.875 4.543-4.19 4.543-2.315 0-4.19-2.034-4.19-4.543 0-2.508 1.875-4.541 4.19-4.541zM27.698 38.25c-2.314 0-4.19-2.034-4.19-4.542s1.877-4.542 4.19-4.542c2.315 0 4.192 2.034 4.192 4.542s-1.877 4.542-4.192 4.542zM40 56.511c-4.603 0-8.333-3.746-8.333-8.367s3.73-8.367 8.333-8.367 8.333 3.746 8.333 8.367-3.73 8.367-8.333 8.367zm12.302-18.26c-2.315 0-4.192-2.035-4.192-4.543s1.877-4.542 4.192-4.542c2.314 0 4.19 2.034 4.19 4.542s-1.876 4.542-4.19 4.542z" fill="#B9E091"></path><path fill-rule="evenodd" clip-rule="evenodd" d="M29.457 29.585c-1.437.72-2.434 2.295-2.434 4.123 0 1.828.997 3.403 2.434 4.123 1.436-.72 2.433-2.295 2.433-4.123 0-1.828-.997-3.403-2.433-4.123zM41.758 23.907c-1.436.721-2.433 2.295-2.433 4.123 0 1.828.997 3.403 2.433 4.123 1.436-.72 2.433-2.295 2.433-4.123 0-1.828-.997-3.402-2.433-4.123zM54.06 29.585c-1.438.72-2.434 2.295-2.434 4.123 0 1.828.997 3.403 2.433 4.123 1.436-.72 2.433-2.295 2.433-4.123 0-1.828-.997-3.403-2.433-4.123zM43.021 40.346a8.368 8.368 0 00-5.313 7.799 8.368 8.368 0 005.313 7.797 8.368 8.368 0 005.312-7.797 8.368 8.368 0 00-5.312-7.799z" fill="#5D9922"></path><path d="M78.333 61.343c-.642-2.157-.208-4.746.392-8.33C79.293 49.62 80 45.397 80 40s-.707-9.62-1.275-13.013c-.6-3.583-1.033-6.173-.392-8.33.126-.42.262-.842.407-1.288.871-2.69 1.859-5.737-.084-8.209-1.028-1.309-2.354-1.973-3.939-1.973-1.568 0-3.172.663-4.722 1.303-.615.254-1.251.516-1.87.732-1.987.693-4.405 1.016-7.607 1.016-2.855 0-5.963-.256-9.254-.528C47.617 9.41 43.844 9.1 40 9.1c-3.845 0-7.617.31-11.265.611-3.29.272-6.398.528-9.253.528-3.202 0-5.62-.323-7.607-1.016a36.297 36.297 0 01-1.87-.732c-1.55-.64-3.154-1.303-4.722-1.303-1.585 0-2.91.664-3.939 1.973-1.942 2.472-.955 5.52-.084 8.208.144.447.281.869.407 1.29.642 2.156.208 4.745-.392 8.33C.707 30.38 0 34.602 0 40s.707 9.62 1.275 13.013c.6 3.584 1.034 6.173.392 8.33-.126.42-.263.843-.407 1.289-.871 2.688-1.859 5.736.084 8.208 1.029 1.309 2.354 1.972 3.939 1.972 1.568 0 3.172-.662 4.723-1.302.615-.254 1.25-.516 1.87-.732 1.987-.693 4.404-1.015 7.606-1.015 2.855 0 5.963.256 9.254.527 3.648.3 7.42.612 11.265.612 3.844 0 7.616-.311 11.264-.612 3.29-.271 6.399-.527 9.253-.527 3.203 0 5.62.322 7.607 1.015.62.216 1.255.478 1.87.732 1.551.64 3.154 1.302 4.722 1.302 1.585 0 2.91-.663 3.939-1.972 1.943-2.472.955-5.52.084-8.208a58.563 58.563 0 01-.407-1.29zm-2.995.89c.136.459.285.918.43 1.362.812 2.508 1.28 4.233.43 5.314-.537.684-1.029.778-1.48.778-.95 0-2.203-.517-3.53-1.065-.655-.27-1.332-.55-2.035-.795-2.327-.811-5.072-1.19-8.635-1.19-2.984 0-6.154.262-9.51.539-3.585.295-7.292.601-11.008.601-3.716 0-7.422-.306-11.008-.601-3.356-.277-6.527-.538-9.51-.538-3.563 0-6.308.378-8.635 1.19-.703.244-1.38.523-2.034.794-1.328.548-2.582 1.066-3.53 1.066-.452 0-.944-.094-1.482-.779-.85-1.081-.38-2.806.432-5.313.144-.445.293-.904.429-1.362.848-2.85.34-5.89-.305-9.737C3.81 49.218 3.125 45.137 3.125 40s.684-9.218 1.232-12.496c.645-3.849 1.153-6.888.305-9.738-.136-.457-.285-.916-.43-1.361-.812-2.508-1.28-4.232-.43-5.314.537-.684 1.029-.778 1.48-.778.95 0 2.203.518 3.53 1.066.655.27 1.332.55 2.035.794 2.327.812 5.072 1.19 8.635 1.19 2.984 0 6.154-.262 9.51-.538 3.585-.296 7.292-.601 11.008-.601 3.716 0 7.423.305 11.008.6 3.356.277 6.527.539 9.51.539 3.563 0 6.308-.378 8.635-1.19.703-.244 1.38-.524 2.034-.794 1.328-.548 2.582-1.066 3.53-1.066.452 0 .944.094 1.482.778.85 1.082.38 2.807-.432 5.315-.144.444-.293.903-.429 1.36-.848 2.85-.34 5.89.305 9.738.549 3.278 1.232 7.36 1.232 12.496 0 5.137-.683 9.218-1.232 12.497-.645 3.848-1.153 6.887-.305 9.737z" fill="#212121"></path><path d="M7.96 15.155a1.562 1.562 0 00-1.051 1.943c.8 2.69.562 5.495.224 7.883a1.562 1.562 0 003.095.438c.385-2.722.648-5.946-.324-9.213a1.563 1.563 0 00-1.944-1.051zM40 38.215c-5.456 0-9.895 4.454-9.895 9.93 0 5.474 4.439 9.929 9.895 9.929 5.457 0 9.896-4.455 9.896-9.93s-4.44-9.93-9.896-9.93zm0 16.734c-3.733 0-6.77-3.053-6.77-6.804 0-3.753 3.037-6.805 6.77-6.805 3.734 0 6.77 3.052 6.77 6.804 0 3.752-3.036 6.805-6.77 6.805zM40 34.135c3.173 0 5.753-2.738 5.753-6.105 0-3.365-2.581-6.104-5.753-6.104-3.173 0-5.753 2.739-5.753 6.104 0 3.366 2.58 6.105 5.753 6.105zm0-9.084c1.449 0 2.628 1.337 2.628 2.98S41.45 31.01 40 31.01s-2.628-1.337-2.628-2.98S38.55 25.05 40 25.05zM52.302 27.604c-3.173 0-5.754 2.738-5.754 6.104s2.581 6.104 5.754 6.104c3.172 0 5.753-2.738 5.753-6.104s-2.581-6.104-5.753-6.104zm0 9.084c-1.45 0-2.63-1.337-2.63-2.98s1.18-2.98 2.63-2.98c1.449 0 2.628 1.337 2.628 2.98s-1.18 2.98-2.628 2.98zM33.452 33.708c0-3.366-2.581-6.104-5.753-6.104-3.173 0-5.753 2.738-5.753 6.104s2.58 6.104 5.753 6.104c3.172 0 5.753-2.738 5.753-6.104zm-5.754 2.98c-1.449 0-2.628-1.337-2.628-2.98s1.18-2.98 2.628-2.98c1.45 0 2.63 1.337 2.63 2.98s-1.18 2.98-2.63 2.98zM72.868 55.02a1.563 1.563 0 00-3.095-.439c-.386 2.722-.649 5.946.324 9.213a1.564 1.564 0 001.943 1.052 1.562 1.562 0 001.051-1.943c-.8-2.691-.562-5.495-.223-7.883zM72.021 51.86h.05a1.563 1.563 0 000-3.126h-.05a1.563 1.563 0 000 3.125zM7.928 31.266h.051a1.562 1.562 0 100-3.125h-.05a1.563 1.563 0 000 3.125z" fill="#212121"></path></svg>