<svg xmlns="http://www.w3.org/2000/svg" width="80" height="80" viewBox="0 0 80 80" fill="none"><path fill-rule="evenodd" clip-rule="evenodd" d="M68.904 44.152c-.136-2.632-.434-5.105-.797-7.021l-.031-.167C64.553 18.436 59.11 8.846 51.912 4.534c-.56-.336-1.13-.636-1.71-.91-3.229.318-6.214 1.193-8.945 2.83-7.199 4.312-12.64 13.902-16.164 32.43l-.031.167a46.315 46.315 0 00-.473 3.149c1.754-.017 3.66.156 5.727.559a3.409 3.409 0 013.408-3.41l12.567.01a3.386 3.386 0 013.052 1.912l10.112.008a3.388 3.388 0 013.25 2.41c.534.237 1.042.5 1.522.785a27.089 27.089 0 014.677-.322z" fill="#FFCEAC"></path><path fill-rule="evenodd" clip-rule="evenodd" d="M11.761 14.835c-5.618 6.545-3.578 14.152.771 19.138 3.528-16.58 8.76-25.366 15.561-29.44-1.102-.761-2.074-1.418-2.595-1.735-4.87.735-8.534 5.976-13.737 12.037zM74.077 13.69C67.1 5.558 62.888-1.1 54.822 2.62c-.328.152-1.516.95-2.91 1.913.25.15.498.307.743.469 6.019-.711 9.954 5.142 15.897 12.067 5.566 6.484 3.616 14.01-.65 18.999l.174.897c7.19-3.623 13.6-14.422 6.001-23.275z" fill="#E0AC91"></path><path d="M37.842 43.602a3.405 3.405 0 01-.71-4.25l-3.408-.004a3.409 3.409 0 00-3.408 3.41c0 1.022.448 1.938 1.159 2.563l6.11 6.242c1.34 1.364 3.498 1.348 4.845 0l1.607-1.642c-.028-.026-.057-.05-.084-.077l-6.11-6.242z" fill="#fff"></path><path d="M49.689 42.789a3.394 3.394 0 00-1.015-2.455 3.386 3.386 0 00-2.383-.976l-9.159-.007a3.405 3.405 0 00.71 4.251l6.11 6.242c.028.028.058.05.085.077l4.677-4.778a3.39 3.39 0 00.975-2.354z" fill="#9D7463"></path><path fill-rule="evenodd" clip-rule="evenodd" d="M51.47 42.491l-3.103 3.171a3.51 3.51 0 01-.672.521l-5.265 5.38c-1.347 1.348-3.505 1.364-4.846 0l-6.11-6.242a3.405 3.405 0 01-1.158-2.562c-5.75-1.122-10.278-.49-13.637 1.194-4.92 9.882 2.899 25.16 21.59 19.407 2.382-.733 4.94-1.807 7.671-3.277v.03c2.73 1.47 5.289 2.544 7.67 3.277 6.476 1.993 11.645 1.46 15.434-.497 2.222-4.242 2.238-9.48-.103-13.621-2.675-4.731-8.425-8.03-17.47-6.78z" fill="#E0AC91"></path><path fill-rule="evenodd" clip-rule="evenodd" d="M38.096 66.96c-.549.266-1.09.517-1.623.75v1.293c0 4.222 3.451 7.676 7.67 7.676.262 0 .52-.013.776-.039a7.672 7.672 0 002.754-5.88v-1.469c-2.32-.714-4.808-1.753-7.46-3.166-.719.308-1.425.585-2.117.835z" fill="#FF8D8D"></path><path d="M44.67 32.014c.754.42 1.706.15 2.126-.602.661-1.183 1.884-1.917 3.191-1.917 1.308 0 2.53.734 3.19 1.917a1.562 1.562 0 102.728-1.524c-1.212-2.17-3.48-3.518-5.918-3.518-2.439 0-4.707 1.348-5.919 3.518-.42.753-.15 1.705.602 2.126zM30.018 26.37c-2.439 0-4.707 1.348-5.919 3.518a1.563 1.563 0 002.729 1.524c.66-1.183 1.882-1.917 3.19-1.917 1.307 0 2.53.734 3.19 1.917a1.563 1.563 0 002.728-1.524c-1.212-2.17-3.48-3.518-5.918-3.518z" fill="#212121"></path><path d="M75.263 12.671c-.754-.878-1.478-1.742-2.179-2.578-2.952-3.524-5.502-6.567-8.356-8.372-3.316-2.097-6.77-2.267-10.56-.52-.233.108-.634.329-2.35 1.5C48.391.872 44.475 0 40.002 0c-4.472 0-8.388.872-11.815 2.701-1.715-1.17-2.116-1.392-2.35-1.5-3.79-1.747-7.244-1.577-10.56.52-2.855 1.805-5.404 4.848-8.357 8.372-.7.836-1.424 1.7-2.178 2.579C1.53 16.415.317 20.82 1.236 25.416c.994 4.97 4.457 9.712 8.96 12.378a60 60 0 00-.71 11.08C7.978 51.75 7.42 55.162 7.919 58.49c.506 3.387 2.09 6.548 4.459 8.902 2.893 2.873 6.817 4.489 11.348 4.673.296.012.594.018.894.018 1.971 0 4.03-.26 6.168-.775C31.072 76.15 35.095 80 40.002 80c4.898 0 8.915-3.836 9.214-8.662 2.138.515 4.198.774 6.17.774.3 0 .598-.006.894-.017 4.531-.184 8.455-1.8 11.348-4.674 2.37-2.353 3.953-5.514 4.46-8.9.497-3.33-.06-6.744-1.57-9.618l.005-.176c.108-3.563-.158-7.571-.713-10.933 4.502-2.666 7.965-7.408 8.959-12.378.918-4.595-.294-9.001-3.506-12.745zM55.894 9.947c4.692 5.4 8.172 14.322 10.638 27.267l.006.032.034.175c.343 1.815.679 4.49.801 7.437a15.419 15.419 0 00-4.566-2.824c-3.388-1.365-7.38-1.711-11.882-1.041a4.95 4.95 0 00-4.633-3.197l-12.568-.01a4.977 4.977 0 00-4.635 3.18c-4.506-.673-8.501-.328-11.891 1.038a15.402 15.402 0 00-4.566 2.824c.122-2.918.454-5.57.8-7.407.012-.057.023-.11.033-.167l.009-.043c2.465-12.943 5.945-21.863 10.637-27.264 4.043-4.654 9.093-6.822 15.891-6.822 6.799 0 11.849 2.168 15.892 6.822zM33.723 40.91l12.568.01c.485 0 .941.187 1.287.527.722.71.731 1.878.018 2.603l-6.276 6.412c-.36.358-.83.554-1.323.554-.489 0-.95-.194-1.296-.547l-6.11-6.242a1.828 1.828 0 00-.085-.08 1.85 1.85 0 011.216-3.237zM4.3 24.802c-.724-3.617.249-7.108 2.812-10.095.767-.892 1.497-1.764 2.203-2.607 6.152-7.344 9.37-10.755 15.2-8.067.054.028.237.131.807.508-6.78 5.15-11.387 14.85-14.495 29.941-3.26-2.293-5.786-5.97-6.527-9.68zm41.81 45.959c0 3.37-2.74 6.114-6.108 6.114-3.368 0-6.108-2.743-6.108-6.114v-.363a43.12 43.12 0 004.545-1.87v2.706a1.562 1.562 0 103.125 0v-2.676a43.23 43.23 0 004.545 1.87v.333zm19.314-5.557c-5.241 5.207-14.147 5.038-24.458-.45l-.053-.038c-.016-.01-.03-.022-.045-.032a1.616 1.616 0 00-.069-.042c-.02-.013-.041-.025-.063-.037l-.056-.027c-.027-.013-.055-.027-.083-.038-.014-.007-.03-.012-.046-.017l-.097-.035-.047-.012c-.033-.008-.065-.017-.099-.024-.032-.007-.065-.01-.097-.016-.017-.001-.034-.005-.051-.007-.104-.01-.21-.01-.315 0-.013.001-.025.004-.037.006-.038.004-.076.01-.114.017-.025.005-.05.012-.074.018l-.073.019a1.308 1.308 0 00-.108.038l-.036.014c-.052.021-.101.044-.149.07-10.404 5.601-19.397 5.807-24.675.563-3.87-3.844-4.84-10.105-2.307-14.886 2.761-5.21 8.802-7.434 16.668-6.184a4.974 4.974 0 001.454 2.347l6.075 6.207a4.911 4.911 0 003.528 1.484 4.974 4.974 0 003.549-1.486l6.282-6.417a4.929 4.929 0 001.227-2.104c7.87-1.253 13.913.97 16.676 6.182 2.534 4.782 1.564 11.043-2.307 14.887zm10.28-40.401c-.742 3.708-3.268 7.386-6.528 9.68C66.07 19.39 61.462 9.69 54.681 4.54c.569-.375.749-.477.795-.501 5.843-2.695 9.06.716 15.213 8.06.706.843 1.436 1.714 2.203 2.607 2.563 2.987 3.536 6.478 2.812 10.096z" fill="#212121"></path><path d="M22.385 49.828c-.86 0-1.562.701-1.562 1.562 0 .86.702 1.563 1.562 1.563.86 0 1.563-.702 1.563-1.563 0-.86-.702-1.562-1.563-1.562zM19.104 58.422c-.86 0-1.563.701-1.563 1.562 0 .86.702 1.563 1.563 1.563.86 0 1.563-.702 1.563-1.563 0-.86-.702-1.563-1.563-1.563zM28.4 56.234c-.86 0-1.562.702-1.562 1.563 0 .86.702 1.562 1.563 1.562.86 0 1.562-.702 1.562-1.563 0-.86-.701-1.562-1.562-1.562zM57.62 49.828c-.861 0-1.563.701-1.563 1.562 0 .86.702 1.563 1.563 1.563.86 0 1.562-.702 1.562-1.563 0-.86-.702-1.562-1.562-1.562zM60.9 58.422c-.86 0-1.562.701-1.562 1.562 0 .86.702 1.563 1.563 1.563.86 0 1.562-.702 1.562-1.563 0-.86-.702-1.563-1.562-1.563zM51.604 56.234c-.86 0-1.563.702-1.563 1.563 0 .86.702 1.562 1.563 1.562.86 0 1.563-.702 1.563-1.563 0-.86-.702-1.562-1.563-1.562zM24.567 19.228l.011-.022a1.562 1.562 0 10-2.8-1.386 1.563 1.563 0 102.79 1.408zM24.526 15.98a1.56 1.56 0 002.173-.401c1.75-2.54 5.033-5.527 7.5-6.128a1.563 1.563 0 00-.74-3.036c-3.741.91-7.631 4.92-9.334 7.392-.49.71-.31 1.683.401 2.172z" fill="#212121"></path></svg>