<svg xmlns="http://www.w3.org/2000/svg" width="80" height="80" viewBox="0 0 80 80" fill="none"><path fill-rule="evenodd" clip-rule="evenodd" d="M64.12 16.355a10.275 10.275 0 00.352-6.88 10.232 10.232 0 00-10.183 2.565c-3.762 3.762-3.982 9.725-.66 13.745l-28.05 28.049c-4.007-3.848-10.374-3.8-14.32.147a10.231 10.231 0 00-2.566 10.182c2.253.675 4.693.559 6.88-.351a10.235 10.235 0 002.215 11.17c3.995 3.996 10.475 3.996 14.471 0 3.947-3.947 3.995-10.314.148-14.321l28.026-28.026c.124.137.251.273.384.405 3.996 3.997 10.476 3.997 14.472 0 3.997-3.996 3.997-10.475 0-14.472a10.235 10.235 0 00-11.17-2.213z" fill="#FB7A78"></path><path d="M76.394 17.463a11.715 11.715 0 00-8.34-3.454c-.575 0-1.145.04-1.707.123A11.76 11.76 0 0063.01 4.08 11.718 11.718 0 0054.67.625a11.72 11.72 0 00-8.341 3.455 11.767 11.767 0 00-3.443 7.81 11.77 11.77 0 001.84 6.878L18.631 44.86a11.731 11.731 0 00-6.993-2.294c-3.15 0-6.112 1.226-8.34 3.454a11.72 11.72 0 00-3.455 8.341c0 3.151 1.227 6.113 3.455 8.341a11.716 11.716 0 008.34 3.455c.575 0 1.145-.041 1.708-.123a11.756 11.756 0 003.335 10.052 11.719 11.719 0 008.341 3.455c3.15 0 6.113-1.228 8.34-3.456a11.724 11.724 0 003.455-8.227 11.719 11.719 0 00-2.293-7.106l25.927-25.928a11.708 11.708 0 007.601 2.775c3.151 0 6.113-1.227 8.341-3.455 4.6-4.6 4.6-12.083 0-16.682zm-2.21 14.472a8.615 8.615 0 01-6.131 2.54 8.615 8.615 0 01-6.457-2.884 1.56 1.56 0 00-2.267-.061L31.302 59.556a1.563 1.563 0 00-.023 2.187c3.244 3.378 3.188 8.821-.125 12.134a8.614 8.614 0 01-6.13 2.54 8.615 8.615 0 01-6.132-2.54 8.648 8.648 0 01-1.875-9.465 1.565 1.565 0 00-1.443-2.163c-.202 0-.406.04-.6.12a8.639 8.639 0 01-3.335.664 8.613 8.613 0 01-6.13-2.54 8.614 8.614 0 01-2.54-6.13c0-2.316.902-4.494 2.54-6.132a8.613 8.613 0 016.13-2.54c2.25 0 4.382.858 6.003 2.414.614.59 1.585.58 2.187-.021l28.049-28.05c.57-.57.613-1.479.1-2.1a8.63 8.63 0 01.56-11.644 8.614 8.614 0 016.132-2.54c2.316 0 4.493.902 6.13 2.54a8.647 8.647 0 011.876 9.465 1.562 1.562 0 002.043 2.043 8.639 8.639 0 013.335-.664c2.316 0 4.493.902 6.13 2.539 3.381 3.38 3.381 8.882 0 12.262z" fill="#212121"></path><path d="M31.896 39.331l-7.287 7.287a1.564 1.564 0 002.21 2.21l7.287-7.287a1.564 1.564 0 00-2.21-2.21zM35.217 36.011l-.036.036a1.563 1.563 0 102.21 2.21l.035-.036a1.562 1.562 0 10-2.21-2.21z" fill="#212121"></path></svg>