<svg xmlns="http://www.w3.org/2000/svg" width="70" height="70" viewBox="0 0 70 70" fill="none"><g fill="currentColor"><path d="M21.097 52.12c.205 1.485 1.53 2.467 3.364 3.826.489.362.994.736 1.527 1.155 1.372 1.078 2.769 1.724 4.133 1.94v.924A4.884 4.884 0 0035 64.845a4.884 4.884 0 004.879-4.88v-.924c1.364-.216 2.761-.862 4.134-1.94.532-.419 1.038-.793 1.526-1.155 1.834-1.359 3.16-2.34 3.364-3.825.073-.524.245-2.412-.575-4.68-.951-2.636-2.84-4.814-5.615-6.475l-.019-.011c-2.37-1.368-3.572-3-3.572-4.85A4.127 4.127 0 0035 31.981a4.127 4.127 0 00-4.123 4.122c0 1.85-1.201 3.483-3.571 4.85a.694.694 0 00-.019.012c-2.774 1.66-4.664 3.839-5.616 6.474-.819 2.27-.646 4.156-.574 4.68zM35 62.11a2.147 2.147 0 01-2.144-2.145V58.88A6.878 6.878 0 0035 57.814a6.887 6.887 0 002.145 1.066v1.085A2.147 2.147 0 0135 62.11zm0-11.337c-1.585 0-2.778-1.422-2.778-2.345 0-.872 1.746-1.105 2.778-1.105s2.778.233 2.778 1.105c0 .923-1.193 2.346-2.778 2.346zm-6.317-7.456c4.073-2.356 4.929-5.222 4.929-7.213A1.39 1.39 0 0135 34.716a1.39 1.39 0 011.389 1.388c0 1.99.855 4.857 4.928 7.213 5.423 3.25 4.95 7.91 4.879 8.424-.098.388-1.362 1.324-2.284 2.008-.48.356-1.025.76-1.588 1.202-2.203 1.73-4.204 1.884-5.957.463v-2.08c2.445-.63 4.145-2.87 4.145-4.906 0-1.856-1.448-3.84-5.512-3.84s-5.512 1.984-5.512 3.84c0 2.036 1.7 4.276 4.145 4.906v2.08c-1.752 1.421-3.753 1.267-5.956-.463a69.205 69.205 0 00-1.588-1.202c-.923-.684-2.186-1.62-2.284-2.002-.072-.52-.544-5.18 4.878-8.43z"></path><path d="M59.281.46c-2.152-1.114-4.72-.202-7.633 2.71-2.731 2.732-5.952 7.392-9.577 13.856-1.238-.262-2.566-.206-4.132-.14-.858.038-1.83.08-2.939.08s-2.081-.043-2.939-.08c-1.565-.066-2.894-.122-4.131.14-3.63-6.47-6.852-11.132-9.585-13.862-2.912-2.91-5.48-3.819-7.631-2.7C6.781 2.506 6.23 10.93 6.461 17.635c.25 7.268 1.523 14.851 3.063 18.39-.134.984.002 2.027.136 3.052.19 1.45.405 3.092-.028 4.89-.475 1.973-1.11 3.435-1.67 4.725-.887 2.043-1.653 3.806-1.08 6.195a14.668 14.668 0 001.747 4.218 1.366 1.366 0 102.334-1.425 11.946 11.946 0 01-1.422-3.432c-.36-1.5.125-2.617.928-4.467.575-1.323 1.29-2.97 1.82-5.174.552-2.29.291-4.283.082-5.885-.243-1.852-.285-2.66.28-3.203l.264-.249c1.526-1.428 5.58-5.223 7.306-11.183.984-3.397 1.031-6.936.14-10.521-.656-2.637-1.827-5.314-3.497-8.003 2.434 2.583 5.308 6.808 8.558 12.582-.645.468-1.293 1.094-1.969 1.931a1.367 1.367 0 002.128 1.717c1.91-2.366 3.032-2.318 6.363-2.175.886.037 1.889.08 3.056.08s2.17-.043 3.056-.08c3.331-.143 4.454-.19 6.363 2.175A1.365 1.365 0 0046.34 22c.588-.474.68-1.335.206-1.922-.676-.838-1.324-1.464-1.97-1.932 3.25-5.775 6.125-10 8.559-12.582-1.67 2.688-2.84 5.365-3.497 8.002-.891 3.585-.844 7.125.14 10.521 1.725 5.961 5.78 9.756 7.306 11.184l.263.249c.566.543.524 1.351.281 3.203-.21 1.602-.47 3.595.081 5.885.53 2.204 1.246 3.851 1.82 5.174.804 1.85 1.289 2.967.929 4.467-1.235 5.137-5.585 8.138-9.017 9.75C46.958 66.106 41.12 67.266 35 67.266c-5.478 0-10.84-.952-15.098-2.68a1.367 1.367 0 10-1.028 2.534C23.517 69.004 29.093 70 35 70c6.513 0 12.765-1.252 17.605-3.526 5.699-2.678 9.334-6.685 10.512-11.587.574-2.388-.192-4.152-1.079-6.194-.56-1.29-1.195-2.752-1.67-4.725-.433-1.798-.218-3.44-.028-4.89.134-1.025.27-2.068.137-3.053 1.541-3.542 2.815-11.145 3.063-18.416.228-6.699-.325-15.112-4.259-17.149zM11.348 32.988c-1.079-3.71-1.96-9.829-2.154-15.446-.31-9.018 1.109-13.357 2.519-14.48 8.841 10.879 8.72 21.203-.365 29.926zm49.46-15.472c-.192 5.62-1.075 11.754-2.156 15.472-9.084-8.723-9.206-19.047-.364-29.926 1.408 1.121 2.826 5.453 2.52 14.454z"></path><path d="M45.959 36.497c0-.755-.612-1.367-1.367-1.367h-.001a1.367 1.367 0 101.368 1.367zM26.776 36.497a1.367 1.367 0 10-2.736 0 1.367 1.367 0 002.736 0zM13.999 61.52h-.001a1.367 1.367 0 10-.002 2.732 1.367 1.367 0 00.003-2.733z"></path></g></svg>