<svg xmlns="http://www.w3.org/2000/svg" width="70" height="70" viewBox="0 0 70 70" fill="none"><g fill="currentColor"><path d="M28.204 18.114a3.294 3.294 0 00-3.29 3.29 3.294 3.294 0 003.29 3.291 3.295 3.295 0 003.291-3.29 3.294 3.294 0 00-3.29-3.291zm0 4.53a1.241 1.241 0 010-2.48 1.241 1.241 0 010 2.48zM41.797 18.114a3.294 3.294 0 00-3.291 3.29 3.294 3.294 0 003.29 3.291 3.294 3.294 0 003.291-3.29 3.294 3.294 0 00-3.29-3.291zm0 4.53a1.241 1.241 0 010-2.48 1.241 1.241 0 010 2.48z"></path><path d="M60.82 67.129a5.565 5.565 0 00-5.241-3.71h-1.244c.851-2.226.93-4.728.128-7.042l-4.568-13.184a12.578 12.578 0 001.553-.723 11.015 11.015 0 006.098-9.89 10.96 10.96 0 00-2.316-6.776c-1.304-1.681-2.202-3.634-2.596-5.649-.158-.801-.527-1.982-.828-2.856 1.368-.557 3.583-1.876 4.278-4.731.863-3.544-1.545-7.201-4.087-9.442C49.036.516 45.6-.591 43.245.308c-1.462.558-2.418 1.473-2.84 2.72-.272.809-.27 1.648-.144 2.413a12.822 12.822 0 00-5.26-1.145c-1.799 0-3.588.392-5.259 1.143.126-.764.128-1.602-.145-2.41C29.176 1.78 28.22.866 26.758.309c-2.355-.9-5.79.206-8.751 2.817-2.542 2.24-4.951 5.898-4.088 9.442.695 2.854 2.91 4.174 4.278 4.73-.299.865-.668 2.035-.83 2.857-.394 2.014-1.292 3.968-2.595 5.649a10.961 10.961 0 00-2.317 6.775c0 2.155.62 4.243 1.793 6.04a1.025 1.025 0 101.717-1.12 8.979 8.979 0 01-1.459-4.92c0-1.459.343-2.86.997-4.125l1.823 1.711c.91.855 2.1 1.326 3.348 1.326h2.531a4.86 4.86 0 003.46-1.433 2.823 2.823 0 012.01-.833h1.483c.29.378.678.678 1.135.861l2.682 1.073v2.704c0 .036.002.072.006.107h-1.774a1.846 1.846 0 01-1.844-1.844 1.026 1.026 0 00-2.05 0 3.9 3.9 0 003.541 3.879l.388 2.491a2.452 2.452 0 002.426 2.056h.665a2.455 2.455 0 002.429-2.067l.385-2.48a3.9 3.9 0 003.543-3.879 1.026 1.026 0 00-2.051 0 1.846 1.846 0 01-1.844 1.844H36.02c.003-.035.005-.07.005-.107V31.16l2.682-1.072a2.68 2.68 0 001.135-.861h1.486c.76 0 1.473.295 2.01.832a4.861 4.861 0 003.46 1.433h2.53c1.249 0 2.438-.47 3.348-1.325l1.822-1.71a8.934 8.934 0 01.996 4.124 8.975 8.975 0 01-4.992 8.07 1.001 1.001 0 00-.065.035c-2.801 1.557-7.995 2.346-15.437 2.346-7.443 0-12.636-.789-15.437-2.345a1.004 1.004 0 00-.065-.035 9.102 9.102 0 01-.925-.534 1.026 1.026 0 00-1.128 1.714c.356.234.728.449 1.107.64.468.26.986.501 1.553.723l-2.611 7.537a1.026 1.026 0 001.938.672l2.625-7.578c3.156.844 7.435 1.258 12.943 1.258s9.787-.414 12.943-1.258l4.581 13.224a8.26 8.26 0 01-1.952 8.495 8.157 8.157 0 01-5.807 2.405h-1.47a8.195 8.195 0 01-2.597-.421l-2.453-.818a10.327 10.327 0 00-6.49 0l-2.453.818a8.194 8.194 0 01-2.597.421h-1.47a8.158 8.158 0 01-5.807-2.405 8.26 8.26 0 01-1.953-8.495l.536-1.544a1.026 1.026 0 00-1.939-.672l-.535 1.545a10.305 10.305 0 00.128 7.04h-1.244a5.564 5.564 0 00-5.241 3.711A2.156 2.156 0 0011.219 70h15.487c1.105 0 2.197-.177 3.246-.526l2.452-.818a8.26 8.26 0 015.194 0l2.453.818c1.048.35 2.14.526 3.245.526h15.487a2.158 2.158 0 002.037-2.871zM35.334 38.501h-.665c-.201 0-.37-.144-.402-.33l-.334-2.15h2.137l-.332 2.138a.408.408 0 01-.404.342zm18.758-26.418a4.396 4.396 0 01-.897 1.789c.024-.163.041-.33.049-.503.044-1.008-.35-2.09-1.027-2.823A3.107 3.107 0 0050 9.519c-1.072-.036-1.74.389-2.11.752l-.03.03c-1.154-2.04-2.668-5.498-.738-7.05.232-.187.483-.34.749-.461.918.445 1.866 1.08 2.768 1.874 2.63 2.319 3.984 5.23 3.451 7.419zM19.363 4.664c.902-.795 1.85-1.429 2.768-1.874.266.121.517.274.75.46 1.929 1.554.415 5.012-.74 7.05l-.029-.029c-.37-.363-1.038-.787-2.11-.752a3.108 3.108 0 00-2.215 1.027c-.678.733-1.071 1.815-1.027 2.823.008.172.025.34.049.503a4.397 4.397 0 01-.897-1.79c-.533-2.188.821-5.1 3.45-7.418zm18.969 23.057c-.02.1-.1.347-.386.461L35 29.361l-2.946-1.179a.627.627 0 01-.385-.46.627.627 0 01.173-.576.63.63 0 01.448-.186h5.42a.63.63 0 01.449.186.626.626 0 01.173.575zm12.941.949c-.528.496-1.219.77-1.944.77h-2.531a2.823 2.823 0 01-2.01-.832 4.86 4.86 0 00-3.459-1.433h-.966a2.677 2.677 0 00-.754-1.48 2.667 2.667 0 00-1.898-.786H32.29c-.717 0-1.392.28-1.899.787a2.678 2.678 0 00-.753 1.479h-.964a4.86 4.86 0 00-3.46 1.433 2.823 2.823 0 01-2.009.832h-2.53a2.831 2.831 0 01-1.945-.77l-2.08-1.952c1.36-1.854 2.3-3.977 2.73-6.168.231-1.178.988-3.246 1.084-3.49a1.026 1.026 0 00-.295-1.202l-.015-.013c-.013-.01-1.278-1.04-1.345-2.566a1.971 1.971 0 01.484-1.34 1.07 1.07 0 01.78-.37c.413-.014.554.12.6.163.218.21.272.63.273.749a1.025 1.025 0 001.852.621c.228-.31 5.351-7.381 1.806-11.048.527-.041 1.01.013 1.423.17.873.334 1.405.81 1.625 1.456.388 1.136-.232 2.656-.6 3.333-.18.127-.378.27-.592.428a1.026 1.026 0 001.224 1.646c.914-.68 1.52-1.041 1.525-1.044a.78.78 0 00.02-.012C31.028 6.913 32.97 6.347 35 6.347c2.031 0 3.973.567 5.772 1.684a20.626 20.626 0 011.545 1.055 1.026 1.026 0 001.224-1.645 27.83 27.83 0 00-.586-.424c-.272-.509-1.025-2.092-.606-3.331.22-.65.752-1.127 1.627-1.461.414-.158.896-.212 1.423-.171-3.545 3.667 1.578 10.738 1.806 11.048a1.026 1.026 0 001.852-.621c-.001-.074.044-.524.269-.744.046-.045.187-.183.605-.168.304.01.559.131.779.37.31.335.504.873.484 1.34-.065 1.475-1.253 2.49-1.337 2.56a1.025 1.025 0 00-.32 1.221c.096.245.852 2.311 1.084 3.49.43 2.191 1.37 4.315 2.73 6.17l-2.078 1.95zM11.218 67.949c-.014 0-.056 0-.09-.047-.03-.043-.018-.079-.013-.092a3.51 3.51 0 013.307-2.34h2.306a10.103 10.103 0 002.35 2.479h-7.86zm47.654-.047c-.033.047-.075.047-.09.047h-7.86a10.121 10.121 0 002.35-2.48h2.307c1.485 0 2.814.941 3.307 2.341.005.013.017.049-.014.092z"></path><path d="M23.674 47.562c-.566 0-1.025.459-1.025 1.025v9.061a3.294 3.294 0 003.29 3.29h2.266a3.294 3.294 0 003.29-3.29v-6.796a1.026 1.026 0 00-2.05 0v1.24H24.7v-3.505c0-.566-.46-1.025-1.026-1.025zm5.77 6.581v3.505c0 .684-.555 1.24-1.24 1.24H25.94c-.684 0-1.24-.556-1.24-1.24v-3.505h4.745zM39.531 49.827c-.566 0-1.025.46-1.025 1.025v6.796a3.294 3.294 0 003.29 3.29h2.266a3.294 3.294 0 003.29-3.29v-9.06a1.025 1.025 0 10-2.05 0v3.504h-4.745v-1.24c0-.566-.46-1.025-1.026-1.025zm5.77 4.316v3.505c0 .684-.556 1.24-1.24 1.24h-2.264c-.684 0-1.24-.556-1.24-1.24v-3.505h4.744z"></path></g></svg>