<svg xmlns="http://www.w3.org/2000/svg" width="70" height="70" viewBox="0 0 70 70" fill="none"><g fill="currentColor"><path d="M66.137 28.363l-1.73-2.5a14.984 14.984 0 00-11.853-6.444L34.279 1.143C33.003-.132 31.107-.364 29.558.566c-1.542.926-2.226 2.703-1.702 4.42a27.878 27.878 0 007.125 11.756l-9.118-2.443c-1.74-.467-3.5.28-4.376 1.86-.873 1.573-.577 3.454.737 4.68 4.994 4.66 11.626 7.34 18.447 7.507a11.746 11.746 0 00-.346 2.83c0 .066.004.13.005.196H26.944c-2.922 0-5.73.636-8.345 1.892a1.367 1.367 0 001.183 2.465 16.425 16.425 0 017.162-1.623h13.75c1.306 5.075 5.92 8.835 11.396 8.835h6.153a22.835 22.835 0 01-4.927 11.73v-1.396a1.367 1.367 0 00-2.735 0v9.047c0 .755.613 1.367 1.368 1.367a4.953 4.953 0 014.751 3.577h-7.962l-3.23-12.795a1.367 1.367 0 00-2.65.67l1.582 6.268c-1.302.559-2.65.995-4.03 1.303a7.657 7.657 0 00-3.195-1.57c.14-.87.169-1.755.086-2.647-.496-5.311-4.919-9.471-10.07-9.471-2.869 0-5.569 1.063-7.601 2.993a10.206 10.206 0 00-3.214 7.465c0 1.778.445 3.452 1.226 4.922-4.389-2.986-7.277-8.02-7.277-13.718 0-2.442.518-4.794 1.54-6.99a1.367 1.367 0 10-2.478-1.154 19.15 19.15 0 00-1.797 8.144 19.3 19.3 0 00.481 4.29c-3.375.778-5.9 3.805-5.9 7.414 0 4.196 3.414 7.61 7.61 7.61 2.535 0 4.892-1.288 6.291-3.33A19.203 19.203 0 0026.924 70h14.914c.755 0 1.367-.612 1.367-1.367a7.629 7.629 0 00-.89-3.581c.952-.266 1.886-.588 2.801-.962l1.231 4.878c.153.607.7 1.032 1.326 1.032H58.26c.754 0 1.367-.612 1.367-1.367 0-3.767-2.727-6.91-6.311-7.556v-2.356a25.595 25.595 0 007.712-16.132c3.897-1.104 6.762-4.69 6.762-8.937a9.249 9.249 0 00-1.653-5.289zM9.821 67.266a4.882 4.882 0 01-4.876-4.877 4.884 4.884 0 013.966-4.79 19.386 19.386 0 005.045 7.37 4.911 4.911 0 01-4.135 2.297zm17.123 0h-.02c-4.287-.006-7.774-3.496-7.774-7.784 0-4.331 3.55-7.724 8.082-7.724 3.753 0 6.98 3.07 7.346 6.991a7.727 7.727 0 01-.352 3.146 1.367 1.367 0 001.299 1.794h.002a4.953 4.953 0 014.752 3.577H26.944zM30.47 4.188c-.235-.77.32-1.173.495-1.278.178-.107.802-.41 1.379.167l16.728 16.728c-.41.109-.81.24-1.2.391l-6.035-1.617A25.198 25.198 0 0130.471 4.19zM24.09 18.84c-.588-.55-.31-1.176-.211-1.355.1-.181.49-.756 1.278-.545l19.409 5.2a11.845 11.845 0 00-2.84 3.476c-6.499.097-12.889-2.346-17.636-6.776zm34.41 21.367h-6.41c-4.979 0-9.03-4.051-9.03-9.03 0-4.98 4.051-9.031 9.03-9.031a12.25 12.25 0 0110.07 5.275l1.73 2.498a6.528 6.528 0 011.166 3.733 6.563 6.563 0 01-6.555 6.555z"></path><path d="M54.71 28.575c-.36 0-.711.146-.967.4-.254.255-.4.607-.4.967s.146.712.4.966c.256.255.607.401.968.401.36 0 .71-.146.967-.4.254-.255.4-.608.4-.967 0-.36-.146-.712-.4-.967a1.377 1.377 0 00-.967-.4zM14.181 39.437c-.36 0-.712-.147-.966-.4a1.378 1.378 0 01-.401-.968c0-.36.146-.712.4-.966.255-.254.608-.4.967-.4.361 0 .713.146.967.4s.4.607.4.966c0 .36-.146.713-.4.967-.255.254-.606.4-.967.4z"></path></g></svg>