<svg xmlns="http://www.w3.org/2000/svg" width="80" height="80" viewBox="0 0 80 80" fill="none"><path fill-rule="evenodd" clip-rule="evenodd" d="M78.098 53.373l-1.993-15.295c-.41.003-.82.004-1.23.004-4.664 5.104-17.397 10.325-34.647 10.325-8.873 0-17.03-1.293-23.253-3.423l-.55 2.871-1.364 7.126c-1.137 5.943.094 6.656 5.107 10.552.26.202.526.4.795.599C39.968 70.6 65.562 67.436 76.3 59.098c2.772-2.152 2.229-2.416 1.798-5.725z" fill="#66E2E7"></path><path d="M21.535 40.29c-2.803.73-4.799 2.598-4.813 4.605 6.255 2.182 14.512 3.512 23.507 3.512 18.787 0 32.217-6.194 35.7-11.683-.216-3.145-1.152-6.963-5.032-9.686-4.631-2.11-10.522-1.317-14.658 3.545-4.776-11.865-20.066-9.266-21.844-.11-5.12-2.387-12.94 2.538-12.86 9.817z" fill="#B7B6FB"></path><path d="M51.528 35.694c0-1.608.971-2.99 2.358-3.59a3.912 3.912 0 10-.54 6.895 3.909 3.909 0 01-1.818-3.305z" fill="#fff"></path><path d="M55.705 35.408a3.91 3.91 0 00-1.819-3.305 3.913 3.913 0 00-.54 6.895 3.912 3.912 0 002.359-3.59z" fill="#9D7463"></path><path fill-rule="evenodd" clip-rule="evenodd" d="M35.105 27.073c0 .375.07.733.19 1.066a3.127 3.127 0 003.822-3.047c0-.375-.069-.732-.19-1.066a3.127 3.127 0 00-3.822 3.047zM20.309 35.887c0 .567.153 1.097.417 1.556.052.002.104.008.157.008a3.127 3.127 0 002.71-4.683c-.053-.003-.104-.008-.157-.008a3.127 3.127 0 00-3.127 3.127z" fill="#9D7463"></path><path d="M79.82 54.35c-.053-.346-.114-.738-.171-1.18l-2.165-16.612c-.208-2.914-.951-5.307-2.272-7.316-1.683-2.557-4.308-4.464-7.813-5.676-1.76-5.893-7.076-9.934-13.219-9.934-3.378 0-6.567 1.242-9.178 3.538-2.503-4.334-6.728-6.857-11.665-6.857-5.352 0-9.99 3.038-11.668 7.432a8.683 8.683 0 00-1.802-.184c-2.842 0-5.867 1.343-8.093 3.593-1.99 2.011-3.183 4.546-3.43 7.237-2.962 1.119-4.873 3.355-4.861 5.808l.005 1.004-1.56 8.153-.002.01L.294 51.89c-.387 2.018-.478 3.555.26 4.979.639 1.231 1.742 2.086 3.413 3.382l.336.26c4.13 3.209 9.739 5.641 16.676 7.23 5.692 1.303 12.157 1.983 18.805 1.983.627 0 1.255-.006 1.885-.019 14.876-.286 28.514-3.878 35.59-9.372 2.872-2.23 2.979-3.288 2.561-5.983zM10.255 31.061a1.564 1.564 0 001.169-1.53c-.025-2.281.889-4.475 2.573-6.178 1.651-1.67 3.846-2.666 5.87-2.666.798 0 1.536.155 2.192.462a1.564 1.564 0 002.196-1.119c.84-4.327 5.205-6.59 9.083-6.59 4.36 0 8.016 2.61 9.776 6.985a1.564 1.564 0 002.642.429c2.247-2.641 5.239-4.095 8.425-4.095 4.978 0 9.257 3.448 10.404 8.385.126.545.534.98 1.07 1.143 6.894 2.088 8.328 6.36 8.671 10.01-1.798 2.44-5.868 4.975-11.042 6.857-4.625 1.683-12.378 3.69-23.055 3.69-19.244 0-32.869-5.982-33.613-11.598l-.005-1.063c-.007-1.237 1.56-2.579 3.644-3.122zM76.85 56.415c-.152.394-1.138 1.16-1.51 1.448-7.163 5.563-21.371 8.75-35.582 8.749-12.96 0-25.923-2.652-33.536-8.569l-.34-.263c-3.018-2.34-3.076-2.385-2.517-5.302l1.117-5.837c1.896 1.48 4.123 2.77 6.744 3.907a1.564 1.564 0 001.245-2.869c-2.993-1.297-5.392-2.795-7.314-4.561l.567-2.962c1.995 2.265 5.262 4.287 9.632 5.91 6.775 2.518 15.608 3.904 24.872 3.904 11.132 0 19.263-2.108 24.124-3.877 4.373-1.591 8.003-3.613 10.467-5.782l1.728 13.264c.063.479.126.89.183 1.254.121.786.209 1.354.12 1.586z" fill="#212121"></path><path d="M16.7 49.261a1.564 1.564 0 10-.46 3.058 1.564 1.564 0 00.46-3.058zM54.696 22.253a5.085 5.085 0 011.11.247c1.755.59 3.013 2.006 3.448 3.883a1.565 1.565 0 001.877 1.169 1.563 1.563 0 001.169-1.877c-.676-2.913-2.731-5.208-5.496-6.139a8.477 8.477 0 00-1.773-.392 1.565 1.565 0 00-.335 3.109zM50.576 23.32c.292 0 .586-.081.849-.25l.01-.006a1.563 1.563 0 10-1.673-2.643l-.05.033a1.559 1.559 0 00-.449 2.156c.299.46.8.71 1.313.71zM20.882 39.014a4.696 4.696 0 004.69-4.69 4.695 4.695 0 00-4.69-4.69 4.695 4.695 0 00-4.69 4.69 4.695 4.695 0 004.69 4.69zm0-6.254c.862 0 1.564.701 1.564 1.563 0 .863-.702 1.564-1.564 1.564a1.565 1.565 0 01-1.563-1.564c0-.862.701-1.563 1.563-1.563zM51.792 40.883a5.482 5.482 0 005.476-5.475 5.482 5.482 0 00-5.476-5.476 5.482 5.482 0 00-5.475 5.476 5.481 5.481 0 005.475 5.475zm0-7.824a2.352 2.352 0 012.349 2.349 2.351 2.351 0 01-2.349 2.349 2.351 2.351 0 01-2.348-2.35 2.352 2.352 0 012.348-2.348zM35.991 29.783a4.695 4.695 0 004.69-4.69 4.695 4.695 0 00-4.69-4.69 4.695 4.695 0 00-4.69 4.69 4.695 4.695 0 004.69 4.69zm0-6.254c.862 0 1.564.701 1.564 1.563 0 .863-.702 1.564-1.564 1.564a1.565 1.565 0 01-1.563-1.564c0-.861.701-1.563 1.563-1.563z" fill="#212121"></path></svg>