<svg xmlns="http://www.w3.org/2000/svg" width="70" height="70" viewBox="0 0 70 70" fill="none"><path d="M39.102 10.938a1.367 1.367 0 100-2.735 1.367 1.367 0 000 2.735z" fill="currentColor"></path><path d="M68.633 54.14h-32.37c.069-.628.104-1.267.104-1.913v-.313a17.835 17.835 0 0011.06-10.365 1.367 1.367 0 00-2.543-1.008 15.096 15.096 0 01-8.517 8.471V30.898c0-5.277-4.293-9.57-9.57-9.57-.93 0-1.851.136-2.734.399v-8.055c0-6.05 4.907-10.938 10.937-10.938h10.938v26.114a1.367 1.367 0 002.734 0V15.039h6.836c.755 0 1.367-.612 1.367-1.367V9.57c0-5.277-4.293-9.57-9.57-9.57H35a13.689 13.689 0 00-9.762 4.102h-2.543a2.738 2.738 0 01-2.734-2.735 1.367 1.367 0 10-2.734 0 5.474 5.474 0 005.468 5.468h.464c-.255.441-.485.899-.69 1.368h-7.977a2.738 2.738 0 01-2.734-2.734 1.367 1.367 0 10-2.735 0 5.473 5.473 0 005.47 5.467h7.11a13.75 13.75 0 00-.275 2.736v9.374a9.606 9.606 0 00-4.101 7.852v23.243H1.367a1.367 1.367 0 100 2.734h15.86v11.758c0 .755.612 1.367 1.367 1.367 8.192 0 15.106-5.572 17.155-13.125h32.884a1.367 1.367 0 000-2.734zM54.14 9.57v2.735h-5.47V2.872c3.117.635 5.47 3.397 5.47 6.698zM26.797 45.937c-.755 0-1.367.613-1.367 1.368a2.738 2.738 0 01-2.735 2.734 2.738 2.738 0 01-2.734-2.734v-7.572a5.456 5.456 0 006.836-1.122 5.456 5.456 0 006.836 1.122v7.572a2.738 2.738 0 01-2.735 2.734 2.737 2.737 0 01-2.734-2.734c0-.755-.612-1.367-1.367-1.367zM19.96 30.898c0-3.725 3.02-6.835 6.836-6.835a6.844 6.844 0 016.836 6.835V35a2.738 2.738 0 01-2.735 2.734A2.737 2.737 0 0128.164 35a1.367 1.367 0 10-2.734 0 2.738 2.738 0 01-2.735 2.734A2.738 2.738 0 0119.961 35v-4.102zm0 36.306V52.038a5.456 5.456 0 006.836-1.122 5.456 5.456 0 006.836 1.122v.189c0 7.832-6.018 14.284-13.672 14.977z" fill="currentColor"></path><path d="M47.305 36.367a1.367 1.367 0 100-2.734 1.367 1.367 0 000 2.734z" fill="currentColor"></path></svg>