<svg xmlns="http://www.w3.org/2000/svg" width="80" height="80" viewBox="0 0 80 80" fill="none"><path d="M27.968 10.828v30.934a4.366 4.366 0 012.796 1.434L42.79 31.172a4.39 4.39 0 117.221-1.352 4.392 4.392 0 014.793 7.158 4.39 4.39 0 01-6.145.064L36.625 49.075a4.391 4.391 0 11-7.442 1.105c-.39.162-.8.266-1.215.31v18.682h38.476V10.828H27.967z" fill="#FEC478"></path><path fill-rule="evenodd" clip-rule="evenodd" d="M36.34 54.972a4.39 4.39 0 00.285-5.897l12.033-12.033a4.39 4.39 0 101.352-7.222 4.407 4.407 0 00.302-2.23 4.39 4.39 0 00-3.709 7.396L34.58 47.011a4.39 4.39 0 00-7.625 3.472 4.4 4.4 0 002.229-.303 4.39 4.39 0 007.158 4.792z" fill="#F0F0F0"></path><path fill-rule="evenodd" clip-rule="evenodd" d="M25.624 1.563l3.993 9.265h36.827l4.805-9.265H25.624zM29.617 69.172l-2.775 9.266h42.376l-2.774-9.266H29.617z" fill="#FFA655"></path><path d="M72.637 2.282A1.565 1.565 0 0071.249 0H8.75a1.563 1.563 0 00-1.435 2.18l3.865 8.97v57.793L8.473 77.99A1.563 1.563 0 009.968 80h59.253a1.562 1.562 0 001.465-2.109l-2.68-8.948V11.209l4.63-8.927zM14.306 67.61V12.391h50.576v55.218H14.305zM11.125 3.125h57.554l-3.185 6.14H13.771l-2.646-6.14zm.942 73.75l1.84-6.14H65.28l1.838 6.14H12.067z" fill="#212121"></path><path d="M55.907 38.083a5.914 5.914 0 001.744-4.21c0-1.59-.62-3.084-1.744-4.209a5.909 5.909 0 00-3.998-1.74 5.937 5.937 0 00-1.744-4.001 5.914 5.914 0 00-4.209-1.744c-1.59 0-3.085.62-4.21 1.744-1.899 1.9-2.238 4.82-1 7.082l-10.08 10.08a5.914 5.914 0 00-3.171-.912c-1.59 0-3.085.62-4.209 1.743a5.913 5.913 0 00-1.744 4.21c0 1.59.62 3.085 1.743 4.21a5.913 5.913 0 003.999 1.74 5.937 5.937 0 001.744 4.001 5.913 5.913 0 004.209 1.743c1.59 0 3.085-.618 4.21-1.743A5.925 5.925 0 0038.61 49.3l10.21-10.212a5.93 5.93 0 002.878.74c1.59 0 3.084-.62 4.209-1.744zm-8.353-2.146L35.52 47.97a1.563 1.563 0 00-.1 2.1 2.814 2.814 0 01-.184 3.797 2.81 2.81 0 01-2 .828 2.81 2.81 0 01-2-.828 2.823 2.823 0 01-.611-3.088 1.563 1.563 0 00-2.042-2.043 2.813 2.813 0 01-1.089.217 2.809 2.809 0 01-2-.828 2.81 2.81 0 01-.827-2c0-.755.294-1.465.828-2a2.81 2.81 0 012-.828 2.812 2.812 0 012.107.943 1.565 1.565 0 002.267.06l12.024-12.024a1.563 1.563 0 00.022-2.187 2.843 2.843 0 01.042-3.958 2.808 2.808 0 012-.828c.754 0 1.465.294 1.999.829a2.82 2.82 0 01.611 3.087 1.563 1.563 0 002.043 2.043 2.825 2.825 0 011.089-.217 2.81 2.81 0 011.999.828 2.81 2.81 0 01.828 2c0 .755-.294 1.465-.829 2a2.808 2.808 0 01-1.998.828c-.734 0-1.43-.28-1.959-.787a1.562 1.562 0 00-2.186.022zM46.026 62.14h-.05a1.562 1.562 0 100 3.126h.05a1.562 1.562 0 100-3.126zM60.975 62.14H50.67a1.562 1.562 0 100 3.126h10.305a1.562 1.562 0 000-3.126zM30.08 16.297c0-.863-.7-1.563-1.563-1.563H18.212a1.562 1.562 0 100 3.126h10.305c.863 0 1.562-.7 1.562-1.563zM33.161 17.86h.05a1.562 1.562 0 100-3.125h-.05a1.562 1.562 0 100 3.125z" fill="#212121"></path></svg>