<svg xmlns="http://www.w3.org/2000/svg" width="70" height="70" viewBox="0 0 70 70" fill="none"><g fill="currentColor"><path d="M25.826 35.602a2.183 2.183 0 100-4.367 2.183 2.183 0 000 4.367zM44.175 35.602a2.183 2.183 0 100-4.367 2.183 2.183 0 000 4.367zM40.665 51.824c-1.445 0-2.572-.397-3.35-1.18-.864-.87-1.148-2.047-1.241-2.733 1.885-.482 3.269-2.19 3.953-3.22.058-.087.12-.178.186-.272.452-.653 1.072-1.548 1.026-2.58-.047-1.04-.812-1.691-2.275-1.933a22.722 22.722 0 00-3.553-.319h-.827a22.7 22.7 0 00-3.547.319c-1.463.242-2.228.892-2.275 1.934-.046 1.03.574 1.926 1.026 2.58.065.093.128.184.186.27.996 1.499 2.337 2.607 3.778 3.12.06.021.12.038.181.056-.087.674-.362 1.88-1.235 2.766-.779.791-1.91 1.192-3.362 1.192a1.027 1.027 0 100 2.055c2.022 0 3.646-.608 4.825-1.806.338-.342.613-.71.84-1.084.226.374.501.742.838 1.084 1.18 1.198 2.804 1.806 4.826 1.806a1.027 1.027 0 100-2.055zm-5.348-5.854c-.299.04-.586.009-.876-.095-1.026-.365-2.004-1.19-2.756-2.321a20.392 20.392 0 00-.208-.304c-.252-.363-.585-.845-.651-1.186.09-.036.252-.083.546-.132a20.643 20.643 0 013.218-.29h.815c1.008.005 2.093.103 3.224.29.294.049.457.096.546.132-.066.342-.4.823-.651 1.186-.073.105-.143.206-.208.304-.921 1.386-2.042 2.29-2.999 2.416z"></path><path d="M69.315 52.579l-5.8-2.05a25.03 25.03 0 002.444-10.794c0-1.144-.081-2.285-.24-3.415l3.596-1.27a1.027 1.027 0 00-.685-1.937l-3.286 1.161a25.694 25.694 0 00-3.193-7.817 3.12 3.12 0 01-.467-1.756l.235-6.676a1.027 1.027 0 10-2.053-.072l-.235 6.674a5.167 5.167 0 00.771 2.907 23.633 23.633 0 012.994 7.428l-14.33 5.065a1.027 1.027 0 00.684 1.937l13.987-4.944c.109.9.167 1.807.167 2.715 0 3.585-.84 7-2.353 10.1L49.75 45.664a1.027 1.027 0 10-.684 1.936l11.493 4.062C55.705 59.765 46.069 65.3 34.999 65.3c-6.294 0-12.278-1.76-17.303-5.087a1.027 1.027 0 10-1.134 1.712c5.362 3.552 11.738 5.429 18.437 5.429 8.247 0 16.006-2.858 21.848-8.048 2.328-2.068 4.24-4.408 5.701-6.94l6.082 2.15a1.028 1.028 0 10.685-1.936zM61.515 2.97a1.97 1.97 0 00-1.956-.117l-18.845 9.25a2.819 2.819 0 01-1.583.26 35.069 35.069 0 00-8.261 0 2.828 2.828 0 01-1.584-.26l-18.845-9.25a1.97 1.97 0 00-1.955.116 1.97 1.97 0 00-.904 1.739l.734 19.994a3.12 3.12 0 01-.468 1.754 25.697 25.697 0 00-3.193 7.818L1.37 33.112a1.027 1.027 0 10-.684 1.937l3.595 1.27a24.691 24.691 0 00-.239 3.416c0 3.723.852 7.396 2.462 10.787L.685 52.58a1.027 1.027 0 00.685 1.936l6.097-2.155a27.335 27.335 0 003.477 4.763 1.024 1.024 0 001.45.069c.42-.382.451-1.031.07-1.451a25.767 25.767 0 01-3.04-4.072l11.51-4.069a1.027 1.027 0 10-.684-1.936L8.432 49.841a22.893 22.893 0 01-2.17-12.82l13.988 4.943a1.028 1.028 0 001.31-.626 1.027 1.027 0 00-.626-1.31l-14.33-5.066a23.624 23.624 0 012.993-7.428 5.17 5.17 0 00.771-2.907L9.64 4.747l18.742 9.2a4.87 4.87 0 002.732.456 33.001 33.001 0 017.774 0 4.877 4.877 0 002.732-.456l18.742-9.2-.22 6.013a1.027 1.027 0 002.052.075l.225-6.127a1.969 1.969 0 00-.903-1.738z"></path><path d="M22.366 15.058l-6.986-3.7a1.713 1.713 0 00-2.509 1.627l.508 7.533a1.718 1.718 0 001.71 1.597c.396 0 .787-.139 1.103-.406 2.393-2.02 4.555-3.033 5.947-3.526a1.709 1.709 0 001.133-1.486 1.714 1.714 0 00-.906-1.64zm-6.983 4.657l-.421-6.255 5.774 3.06c-1.41.573-3.298 1.55-5.353 3.195zM56.352 11.434a1.713 1.713 0 00-1.733-.077l-6.985 3.701c-.6.318-.956.962-.907 1.64.05.675.495 1.258 1.133 1.485 1.392.493 3.554 1.505 5.948 3.526a1.707 1.707 0 001.774.269 1.703 1.703 0 001.039-1.46l.508-7.533a1.714 1.714 0 00-.777-1.55zm-1.736 8.28c-2.055-1.643-3.942-2.621-5.353-3.195l5.775-3.059-.422 6.255z"></path></g></svg>