<svg xmlns="http://www.w3.org/2000/svg" width="68" height="68" viewBox="0 0 68 68" fill="none"><circle opacity=".5" cx="52" cy="16" r="16" fill="#5FE1D9"></circle><circle cx="31" cy="37" r="31" fill="#5FE1D9"></circle><path fill-rule="evenodd" clip-rule="evenodd" d="M17.583 29.833c0-1.507 1.2-2.75 2.705-2.75h19.09c1.506 0 2.705 1.243 2.705 2.75v6a.583.583 0 01-1.167 0v-6c0-.886-.7-1.583-1.538-1.583h-19.09c-.838 0-1.538.697-1.538 1.583v10.834c0 .886.7 1.583 1.538 1.583h8.378a.583.583 0 010 1.167h-8.378c-1.506 0-2.705-1.243-2.705-2.75V29.833z" fill="#fff"></path><path fill-rule="evenodd" clip-rule="evenodd" d="M17.583 31.167c0-.323.261-.584.583-.584H41.5a.583.583 0 110 1.167H18.166a.583.583 0 01-.583-.583zM19.916 37c0-.322.261-.583.583-.583h2.334a.583.583 0 010 1.166h-2.334a.583.583 0 01-.583-.583zM19.916 39.917c0-.322.261-.584.583-.584h4.667a.583.583 0 110 1.167h-4.667a.583.583 0 01-.583-.583zM38 38.75a5.25 5.25 0 100 10.5 5.25 5.25 0 000-10.5zM31.583 44a6.417 6.417 0 1112.833 0 6.417 6.417 0 01-12.833 0z" fill="#fff"></path><path fill-rule="evenodd" clip-rule="evenodd" d="M39.92 43.004a.584.584 0 01.825.825l-2.333 2.334a.584.584 0 01-.825 0l-1.75-1.75a.584.584 0 01.825-.825l1.337 1.337 1.921-1.92z" fill="#fff"></path></svg>