<svg xmlns="http://www.w3.org/2000/svg" width="68" height="68" viewBox="0 0 68 68" fill="none"><circle opacity=".5" cx="52" cy="16" r="16" fill="#FFD98E"></circle><circle cx="31" cy="37" r="31" fill="#FFD98E"></circle><path d="M42.101 26.145H19.9a2.902 2.902 0 00-2.899 2.9v15.85a2.902 2.902 0 002.899 2.898H42.1A2.902 2.902 0 0045 44.894v-15.85a2.902 2.902 0 00-2.899-2.899zM25.52 44.503a1.48 1.48 0 01-.047-.03.433.433 0 00-.117-.083 1.372 1.372 0 01-.49-.813l-.378-1.982 1.981.378a1.371 1.371 0 11-.95 2.53zm-7.657-4.851h2.004c.327.372.769.624 1.255.716l1.983.379-1.983.378c-.317.06-.617.19-.88.377h-2.379v-1.85zm9.485-.712a1.37 1.37 0 01-.879.58l-1.981.378.378-1.981a1.371 1.371 0 112.482 1.023zm-3.33-1.185l-.141.738-.141-.738a2.236 2.236 0 00-.852-1.367v-9.38h1.85V36.5a2.23 2.23 0 00-.717 1.255zm-1.784-.765c.341.2.58.538.654.927l.378 1.981-1.982-.378a1.368 1.368 0 01-.815-.494.444.444 0 00-.078-.109 1.37 1.37 0 011.843-1.927zm-.95 4.983l1.982-.378-.378 1.982a1.371 1.371 0 11-1.604-1.604zm2.452 1.765l.14-.738.141.738c.093.487.345.929.717 1.256v1.935h-1.85v-1.824c.444-.334.748-.821.852-1.367zm3.775-2.236a2.227 2.227 0 00-.88-.377l-1.983-.378 1.983-.379a2.228 2.228 0 001.255-.716h16.25v1.85H27.512zm16.626-12.458v9.745H28.36a2.232 2.232 0 00-2.763-2.763v-9.017h16.504a2.038 2.038 0 012.036 2.035zM19.899 27.01h2.121v8.983a2.233 2.233 0 00-2.627 2.797h-1.53v-9.745A2.038 2.038 0 0119.9 27.01zm-2.036 17.885v-2.528h1.658a2.234 2.234 0 002.5 3.136v1.427h-2.122a2.038 2.038 0 01-2.036-2.035zm24.238 2.035H25.597v-1.462a2.234 2.234 0 002.635-3.101h15.905v2.528A2.038 2.038 0 0142.1 46.93z" fill="#fff"></path></svg>