<svg xmlns="http://www.w3.org/2000/svg" width="68" height="68" viewBox="0 0 68 68" fill="none"><circle opacity=".5" cx="52" cy="16" r="16" fill="#FF8364"></circle><circle cx="31" cy="37" r="31" fill="#FF8364"></circle><path d="M40.188 43.563v.874h-1.18l-.541-.36a3.05 3.05 0 00-1.172-.464 4.769 4.769 0 001.142-3.113 4.818 4.818 0 00-4.812-4.813 4.818 4.818 0 00-4.813 4.813c0 1.277.496 2.463 1.371 3.356-.3.24-.495.606-.495 1.019 0 .185.03.363.074.537l-1.513-2.017a1.777 1.777 0 00-1.414-.708h-.192a1.77 1.77 0 00-1.449 2.782l1.777 2.539a3.94 3.94 0 003.226 1.68h9.99v.874h4.376v-7h-4.376zm-6.563-7a3.942 3.942 0 013.938 3.937c0 1.204-.538 2.31-1.472 3.063h-2.029v-.876h1.313v-1.312c0-.724-.589-1.313-1.313-1.313h-.874a.438.438 0 01-.438-.437v-.438h1.313c.24 0 .437.197.437.438h.875c0-.724-.589-1.313-1.313-1.313v-.874h-.874v.874h-1.313v1.313c0 .724.589 1.313 1.313 1.313h.874c.242 0 .438.195.438.437v.438h-1.313a.438.438 0 01-.437-.438h-.875c0 .724.589 1.313 1.313 1.313v.874h-2.03a3.901 3.901 0 01-1.47-3.062 3.942 3.942 0 013.937-3.938zm-3.428 12.25a3.064 3.064 0 01-2.508-1.306l-1.778-2.54a.894.894 0 01.732-1.405h.192c.28 0 .547.134.714.358l1.701 2.268a2.199 2.199 0 001.75.874h.863l.013.002 2.773-.001h.002c.35 0 .68.137.927.384l.362.362.619-.618-.362-.362a2.174 2.174 0 00-1.546-.641h-2.789a1.308 1.308 0 01-1.3-1.313c0-.242.197-.438.438-.438h5.768c.433 0 .853.127 1.213.368l.761.508h1.446v3.5h-9.99zm13.49.874h-.874v-3.5h-.876v3.5h-.874v-5.25h.874v.876h.876v-.876h.874v5.25zM22.25 34.813a.438.438 0 01-.438-.438h-.875c0 .724.59 1.313 1.313 1.313v.874h.875v-.874h1.313v-1.313c0-.724-.59-1.313-1.313-1.313h-.875a.438.438 0 01-.438-.437v-.438h1.313c.241 0 .438.197.438.438h.875c0-.724-.59-1.313-1.313-1.313v-.875h-.875v.875h-1.313v1.313c0 .724.59 1.313 1.313 1.313h.875c.241 0 .438.196.438.437v.438H22.25z" fill="#fff"></path><path d="M22.532 39.188h.311a5.1 5.1 0 005.095-5.095c0-1.05-.319-2.06-.921-2.922l-2.095-2.992 1.392-4.177-2.549-.637-.694 1.39-.614-.921-3.428.572 1.418 3.782-2.089 2.983a5.074 5.074 0 00-.92 2.922 5.1 5.1 0 005.094 5.094zm-.49-14.397l1.137 1.704 1.056-2.11.95.237-1.063 3.19h-2.881l-1.02-2.718 1.822-.303zm-2.966 6.882l2.09-2.985h3.044l2.09 2.985c.499.713.762 1.55.762 2.42a4.225 4.225 0 01-4.22 4.22h-.31a4.225 4.225 0 01-4.22-4.22 4.2 4.2 0 01.764-2.42zM22.688 44.637V44h1.75l-3.5-4.667-3.5 4.667h1.75v.437a6.132 6.132 0 006.125 6.125h.437v-1.128l-.417-.239a5.262 5.262 0 01-2.645-4.558zm-2.625-.2v-1.312h-.875l1.75-2.333 1.75 2.333h-.875v1.512a6.14 6.14 0 002.533 4.961 5.259 5.259 0 01-4.284-5.16zM31.875 29.363V30h-1.75l3.5 4.667 3.5-4.667h-1.75v-.438a6.132 6.132 0 00-6.125-6.125h-.438v1.13l.418.238a5.262 5.262 0 012.645 4.558zm2.625.2v1.312h.875l-1.75 2.333-1.75-2.333h.875v-1.512a6.141 6.141 0 00-2.534-4.961 5.259 5.259 0 014.284 5.16z" fill="#fff"></path></svg>