<svg xmlns="http://www.w3.org/2000/svg" width="68" height="68" viewBox="0 0 68 68" fill="none"><circle opacity=".5" cx="52" cy="16" r="16" fill="#0C81F6"></circle><circle cx="31" cy="37" r="31" fill="#0C81F6"></circle><path d="M42.735 43.225a.558.558 0 00-.717-.33l-5.8 2.14a.558.558 0 10.386 1.047l5.8-2.14a.558.558 0 00.33-.717zM35.34 45.954a.558.558 0 00-.717-.33l-.246.09a.558.558 0 00.386 1.047l.246-.09a.558.558 0 00.33-.717zM42.734 40.953a.558.558 0 00-.716-.33l-4.584 1.69a.558.558 0 10.386 1.047l4.584-1.691a.558.558 0 00.33-.716zM42.734 38.703a.558.558 0 00-.716-.33l-4.584 1.692a.558.558 0 10.386 1.046l4.584-1.691a.558.558 0 00.33-.717z" fill="#fff"></path><path d="M44.635 28.498l-13.442-4.96a.559.559 0 00-.386 0l-13.442 4.96a.558.558 0 00-.365.523v15.958c0 .234.145.443.365.523l13.442 4.96a.558.558 0 00.386 0l13.442-4.96c.22-.08.365-.29.365-.523V29.021a.558.558 0 00-.365-.523zm-14.193 20.64L18.116 44.59V29.821l2.51.926v6.759c0 .233.145.442.364.523l6.024 2.223a.556.556 0 00.512-.066.558.558 0 00.239-.458v-6.346l2.677.988v14.769zM26.65 32.97v5.958l-4.908-1.811v-5.958l4.908 1.811zm-3.855-2.616l4.413-1.628 4.413 1.628-4.413 1.628-4.413-1.628zM31 33.386l-2.188-.807 4.612-1.701a.558.558 0 000-1.047L27.4 27.608a.559.559 0 00-.386 0l-5.837 2.154-2.008-.741L31 24.656l11.83 4.365L31 33.386zM43.885 44.59L31.558 49.14v-14.77l12.327-4.548v14.77z" fill="#fff"></path></svg>